mtllib material.mtl
usemtl new_mat_color.006
v 0.00635000 0.01732400 -0.06000000
v 0.00434400 0.01825900 -0.06000000
v 0.23621300 0.02750000 -0.06000000
v 0.00816300 0.01605400 -0.06000000
v -0.01099900 0.01267500 -0.06000000
v -0.01193400 0.01066900 -0.06000000
v -0.23621300 0.02750000 -0.06000000
v -0.00635000 -0.00467400 -0.06000000
v -0.00434400 -0.00560900 -0.06000000
v -0.23621300 -0.02750000 -0.06000000
v 0.01250700 0.00853000 -0.06000000
v 0.01193400 0.01066900 -0.06000000
v -0.01250700 0.00853000 -0.06000000
v -0.01270000 0.00632500 -0.06000000
v 0.01099900 0.01267500 -0.06000000
v 0.00972900 0.01448800 -0.06000000
v 0.23621300 -0.02750000 -0.06000000
v 0.00972900 -0.00183800 -0.06000000
v 0.01099900 -0.00002500 -0.06000000
v -0.01250700 0.00412000 -0.06000000
v -0.01193400 0.00198100 -0.06000000
v -0.01099900 -0.00002500 -0.06000000
v 0.00434400 -0.00560900 -0.06000000
v 0.00635000 -0.00467400 -0.06000000
v 0.00816300 -0.00340400 -0.06000000
v -0.00434400 0.01825900 -0.06000000
v -0.00635000 0.01732400 -0.06000000
v -0.00816300 0.01605400 -0.06000000
v -0.00972900 0.01448800 -0.06000000
v -0.00972900 -0.00183800 -0.06000000
v -0.00816300 -0.00340400 -0.06000000
v 0.01193400 0.00198100 -0.06000000
v 0.01250700 0.00412000 -0.06000000
v 0.01270000 0.00632500 -0.06000000
v 0.00220500 0.01883200 -0.06000000
v 0.00000000 0.01902500 -0.06000000
v -0.00220500 0.01883200 -0.06000000
v -0.00220500 -0.00618200 -0.06000000
v 0.00000000 -0.00637500 -0.06000000
v 0.00220500 -0.00618200 -0.06000000
v 0.23621300 0.02750000 0.06000000
v -0.23621300 0.02750000 0.06000000
v 0.01193400 0.01066900 0.06000000
v 0.01099900 0.01267500 0.06000000
v 0.00972900 0.01448800 0.06000000
v 0.00972900 -0.00183800 0.06000000
v 0.23621300 -0.02750000 0.06000000
v 0.01099900 -0.00002500 0.06000000
v 0.01193400 0.00198100 0.06000000
v -0.01270000 0.00632500 0.06000000
v -0.01250700 0.00853000 0.06000000
v 0.01250700 0.00853000 0.06000000
v 0.01270000 0.00632500 0.06000000
v 0.01250700 0.00412000 0.06000000
v 0.00816300 -0.00340400 0.06000000
v 0.00635000 -0.00467400 0.06000000
v 0.00434400 -0.00560900 0.06000000
v -0.01250700 0.00412000 0.06000000
v -0.23621300 -0.02750000 0.06000000
v -0.01193400 0.00198100 0.06000000
v -0.01193400 0.01066900 0.06000000
v -0.01099900 0.01267500 0.06000000
v -0.00972900 0.01448800 0.06000000
v 0.00434400 0.01825900 0.06000000
v 0.00635000 0.01732400 0.06000000
v 0.00816300 0.01605400 0.06000000
v -0.00816300 -0.00340400 0.06000000
v -0.00635000 -0.00467400 0.06000000
v -0.00434400 -0.00560900 0.06000000
v 0.00220500 -0.00618200 0.06000000
v 0.00000000 -0.00637500 0.06000000
v -0.00220500 -0.00618200 0.06000000
v -0.00972900 -0.00183800 0.06000000
v -0.01099900 -0.00002500 0.06000000
v -0.00434400 0.01825900 0.06000000
v -0.00220500 0.01883200 0.06000000
v 0.00000000 0.01902500 0.06000000
v 0.00220500 0.01883200 0.06000000
v -0.00816300 0.01605400 0.06000000
v -0.00635000 0.01732400 0.06000000
v -0.00000000 0.01902500 0.06000000
v -0.00000000 0.01902500 -0.06000000
v 0.00000000 -0.00637500 0.06000000
v 0.00000000 -0.00637500 -0.06000000
vn -0.34320000 -0.59440000 -0.72730000
vn -0.23470000 -0.64500000 -0.72730000
vn 0.57730000 0.57730000 -0.57740000
vn -0.44120000 -0.52580000 -0.72730000
vn 0.59440000 -0.34320000 -0.72730000
vn 0.64500000 -0.23470000 -0.72730000
vn -0.57730000 0.57730000 -0.57740000
vn 0.34320000 0.59440000 -0.72730000
vn 0.23470000 0.64500000 -0.72730000
vn -0.57730000 -0.57730000 -0.57740000
vn -0.67590000 -0.11920000 -0.72730000
vn -0.64500000 -0.23470000 -0.72730000
vn 0.67590000 -0.11920000 -0.72730000
vn 0.68640000 -0.00000000 -0.72730000
vn -0.59440000 -0.34320000 -0.72730000
vn -0.52580000 -0.44120000 -0.72730000
vn 0.57730000 -0.57730000 -0.57740000
vn -0.52580000 0.44120000 -0.72730000
vn -0.59440000 0.34320000 -0.72730000
vn 0.67590000 0.11920000 -0.72730000
vn 0.64500000 0.23470000 -0.72730000
vn 0.59440000 0.34320000 -0.72730000
vn -0.23470000 0.64500000 -0.72730000
vn -0.34320000 0.59440000 -0.72730000
vn -0.44120000 0.52580000 -0.72730000
vn 0.23470000 -0.64500000 -0.72730000
vn 0.34320000 -0.59440000 -0.72730000
vn 0.44120000 -0.52580000 -0.72730000
vn 0.52580000 -0.44120000 -0.72730000
vn 0.52580000 0.44120000 -0.72730000
vn 0.44120000 0.52580000 -0.72730000
vn -0.64500000 0.23470000 -0.72730000
vn -0.67590000 0.11920000 -0.72730000
vn -0.68640000 -0.00000000 -0.72730000
vn -0.11920000 -0.67590000 -0.72730000
vn -0.00000000 -0.00000000 -1.00000000
vn 0.11920000 -0.67590000 -0.72730000
vn 0.11920000 0.67590000 -0.72730000
vn -0.00000000 -0.00000000 -1.00000000
vn -0.11920000 0.67590000 -0.72730000
vn 0.57730000 0.57730000 0.57740000
vn -0.57730000 0.57730000 0.57740000
vn -0.64500000 -0.23470000 0.72730000
vn -0.59440000 -0.34320000 0.72730000
vn -0.52580000 -0.44120000 0.72730000
vn -0.52580000 0.44120000 0.72730000
vn 0.57730000 -0.57730000 0.57740000
vn -0.59440000 0.34320000 0.72730000
vn -0.64500000 0.23470000 0.72730000
vn 0.68640000 -0.00000000 0.72730000
vn 0.67590000 -0.11920000 0.72730000
vn -0.67590000 -0.11920000 0.72730000
vn -0.68640000 -0.00000000 0.72730000
vn -0.67590000 0.11920000 0.72730000
vn -0.44120000 0.52580000 0.72730000
vn -0.34320000 0.59440000 0.72730000
vn -0.23470000 0.64500000 0.72730000
vn 0.67590000 0.11920000 0.72730000
vn -0.57730000 -0.57730000 0.57740000
vn 0.64500000 0.23470000 0.72730000
vn 0.64500000 -0.23470000 0.72730000
vn 0.59440000 -0.34320000 0.72730000
vn 0.52580000 -0.44120000 0.72730000
vn -0.23470000 -0.64500000 0.72730000
vn -0.34320000 -0.59440000 0.72730000
vn -0.44120000 -0.52580000 0.72730000
vn 0.44120000 0.52580000 0.72730000
vn 0.34320000 0.59440000 0.72730000
vn 0.23470000 0.64500000 0.72730000
vn -0.11920000 0.67590000 0.72730000
vn -0.00000000 -0.00000000 1.00000000
vn 0.11920000 0.67590000 0.72730000
vn 0.52580000 0.44120000 0.72730000
vn 0.59440000 0.34320000 0.72730000
vn 0.23470000 -0.64500000 0.72730000
vn 0.11920000 -0.67590000 0.72730000
vn -0.00000000 -0.00000000 1.00000000
vn -0.11920000 -0.67590000 0.72730000
vn 0.44120000 -0.52580000 0.72730000
vn 0.34320000 -0.59440000 0.72730000
vn -0.00000000 -1.00000000 -0.00000000
vn -0.00000000 -1.00000000 -0.00000000
vn -0.00000000 1.00000000 -0.00000000
vn -0.00000000 1.00000000 -0.00000000
f 1//1 2//2 3//3
f 1//1 3//3 4//4
f 5//5 6//6 7//7
f 8//8 9//9 10//10
f 11//11 12//12 3//3
f 6//6 13//13 7//7
f 7//7 13//13 14//14
f 7//7 14//14 10//10
f 12//12 15//15 3//3
f 3//3 15//15 16//16
f 3//3 16//16 4//4
f 17//17 18//18 19//19
f 14//14 20//20 10//10
f 10//10 20//20 21//21
f 10//10 21//21 22//22
f 23//23 24//24 17//17
f 17//17 24//24 25//25
f 17//17 25//25 18//18
f 26//26 27//27 7//7
f 27//27 28//28 7//7
f 7//7 28//28 29//29
f 7//7 29//29 5//5
f 22//22 30//30 10//10
f 10//10 30//30 31//31
f 10//10 31//31 8//8
f 19//19 32//32 17//17
f 17//17 32//32 33//33
f 17//17 33//33 3//3
f 3//3 33//33 34//34
f 3//3 34//34 11//11
f 2//2 35//35 3//3
f 3//3 35//35 36//36
f 3//3 36//36 7//7
f 7//7 36//36 37//37
f 7//7 37//37 26//26
f 9//9 38//38 10//10
f 10//10 38//38 39//39
f 10//10 39//39 17//17
f 17//17 39//39 40//40
f 17//17 40//40 23//23
f 41//41 3//3 42//42
f 42//42 3//3 7//7
f 43//43 41//41 44//44
f 44//44 41//41 45//45
f 46//46 47//47 48//48
f 48//48 47//47 49//49
f 42//42 50//50 51//51
f 43//43 52//52 41//41
f 41//41 52//52 53//53
f 41//41 53//53 47//47
f 47//47 53//53 54//54
f 47//47 54//54 49//49
f 46//46 55//55 47//47
f 47//47 55//55 56//56
f 47//47 56//56 57//57
f 50//50 42//42 58//58
f 58//58 42//42 59//59
f 58//58 59//59 60//60
f 51//51 61//61 42//42
f 42//42 61//61 62//62
f 42//42 62//62 63//63
f 64//64 65//65 41//41
f 41//41 65//65 66//66
f 41//41 66//66 45//45
f 67//67 59//59 68//68
f 68//68 59//59 69//69
f 57//57 70//70 47//47
f 47//47 70//70 71//71
f 47//47 71//71 59//59
f 59//59 71//71 72//72
f 59//59 72//72 69//69
f 67//67 73//73 59//59
f 59//59 73//73 74//74
f 59//59 74//74 60//60
f 75//75 76//76 42//42
f 42//42 76//76 77//77
f 42//42 77//77 41//41
f 41//41 77//77 78//78
f 41//41 78//78 64//64
f 63//63 79//79 42//42
f 42//42 79//79 80//80
f 42//42 80//80 75//75
f 17//17 47//47 10//10
f 10//10 47//47 59//59
f 41//41 47//47 3//3
f 3//3 47//47 17//17
f 59//59 42//42 10//10
f 10//10 42//42 7//7
f 50//50 14//14 51//51
f 51//51 14//14 13//13
f 51//51 13//13 61//61
f 61//61 13//13 6//6
f 61//61 6//6 62//62
f 62//62 6//6 5//5
f 62//62 5//5 63//63
f 63//63 5//5 29//29
f 63//63 29//29 79//79
f 79//79 29//29 28//28
f 79//79 28//28 80//80
f 80//80 28//28 27//27
f 80//80 27//27 75//75
f 75//75 27//27 26//26
f 75//75 26//26 76//76
f 76//76 26//26 37//37
f 76//76 37//37 81//81
f 81//81 37//37 82//82
f 81//81 82//82 78//78
f 78//78 82//82 35//35
f 78//78 35//35 64//64
f 64//64 35//35 2//2
f 64//64 2//2 65//65
f 65//65 2//2 1//1
f 65//65 1//1 66//66
f 66//66 1//1 4//4
f 66//66 4//4 45//45
f 45//45 4//4 16//16
f 45//45 16//16 44//44
f 44//44 16//16 15//15
f 44//44 15//15 43//43
f 43//43 15//15 12//12
f 43//43 12//12 52//52
f 52//52 12//12 11//11
f 52//52 11//11 53//53
f 53//53 11//11 34//34
f 53//53 34//34 54//54
f 54//54 34//34 33//33
f 54//54 33//33 49//49
f 49//49 33//33 32//32
f 49//49 32//32 48//48
f 48//48 32//32 19//19
f 48//48 19//19 46//46
f 46//46 19//19 18//18
f 46//46 18//18 55//55
f 55//55 18//18 25//25
f 55//55 25//25 56//56
f 56//56 25//25 24//24
f 56//56 24//24 57//57
f 57//57 24//24 23//23
f 57//57 23//23 70//70
f 70//70 23//23 40//40
f 70//70 40//40 83//83
f 83//83 40//40 84//84
f 83//83 84//84 72//72
f 72//72 84//84 38//38
f 72//72 38//38 69//69
f 69//69 38//38 9//9
f 69//69 9//9 68//68
f 68//68 9//9 8//8
f 68//68 8//8 67//67
f 67//67 8//8 31//31
f 67//67 31//31 73//73
f 73//73 31//31 30//30
f 73//73 30//30 74//74
f 74//74 30//30 22//22
f 74//74 22//22 60//60
f 60//60 22//22 21//21
f 60//60 21//21 58//58
f 58//58 21//21 20//20
f 58//58 20//20 50//50
f 50//50 20//20 14//14

