# Blender 4.0.0
# www.blender.org
mtllib mtc_robot_side.mtl
o mtc_robot_side
v 0.007028 -0.040672 0.000000
v 0.007028 -0.040672 0.000000
v 0.007028 -0.040672 0.000000
v 0.007977 -0.041309 0.000000
v 0.007977 -0.041309 0.000000
v 0.007977 -0.041309 0.000000
v -0.000850 -0.042255 0.000000
v -0.000850 -0.042255 0.000000
v -0.009674 -0.041292 0.000000
v -0.009674 -0.041292 0.000000
v -0.018088 -0.038464 0.000000
v -0.018088 -0.038464 0.000000
v -0.025703 -0.033903 0.000000
v -0.025703 -0.033903 0.000000
v -0.025703 -0.033903 0.000000
v -0.031374 -0.030817 0.000000
v -0.031374 -0.030817 0.000000
v -0.037696 -0.029534 0.000000
v -0.037696 -0.029534 0.000000
v -0.044121 -0.030164 0.000000
v -0.044121 -0.030164 0.000000
v -0.044121 -0.030164 0.000000
v -0.045018 -0.030582 0.000000
v -0.045018 -0.030582 0.000000
v -0.045696 -0.031304 0.000000
v -0.045696 -0.031304 0.000000
v -0.046058 -0.032223 0.000000
v -0.046058 -0.032223 0.000000
v -0.046054 -0.033214 0.000000
v -0.046054 -0.033214 0.000000
v -0.045683 -0.034133 0.000000
v -0.045683 -0.034133 0.000000
v -0.045000 -0.034846 0.000000
v -0.045000 -0.034846 0.000000
v -0.044100 -0.035257 0.000000
v -0.044100 -0.035257 0.000000
v -0.043111 -0.035306 0.000000
v -0.043111 -0.035306 0.000000
v -0.043111 -0.035306 0.000000
v -0.034637 -0.035577 0.000000
v -0.034637 -0.035577 0.000000
v -0.026757 -0.038707 0.000000
v -0.026757 -0.038707 0.000000
v -0.026757 -0.038707 0.000000
v -0.016734 -0.043676 0.000000
v -0.016734 -0.043676 0.000000
v -0.005979 -0.046755 0.000000
v -0.005979 -0.046755 0.000000
v 0.005155 -0.047840 0.000000
v 0.005155 -0.047840 0.000000
v 0.016302 -0.046899 0.000000
v 0.016302 -0.046899 0.000000
v 0.016302 -0.046899 0.000000
v 0.026338 -0.044237 0.000000
v 0.026338 -0.044237 0.000000
v 0.026338 -0.044237 0.000000
v 0.028216 -0.030125 0.000000
v 0.028216 -0.030125 0.000000
v 0.028216 -0.030125 0.000000
v 0.035305 -0.021382 0.000000
v 0.035305 -0.021382 0.000000
v 0.039769 -0.011049 0.000000
v 0.039769 -0.011049 0.000000
v 0.041275 0.000105 0.000000
v 0.041275 0.000105 0.000000
v 0.039712 0.011252 0.000000
v 0.039712 0.011252 0.000000
v 0.035195 0.021562 0.000000
v 0.035195 0.021562 0.000000
v 0.028062 0.030268 0.000000
v 0.028062 0.030268 0.000000
v 0.018842 0.036723 0.000000
v 0.018842 0.036723 0.000000
v 0.008220 0.040448 0.000000
v 0.008220 0.040448 0.000000
v -0.003012 0.041165 0.000000
v -0.003012 0.041165 0.000000
v -0.014021 0.038821 0.000000
v -0.014021 0.038821 0.000000
v -0.023987 0.033589 0.000000
v -0.023987 0.033589 0.000000
v -0.032170 0.025860 0.000000
v -0.032170 0.025860 0.000000
v -0.037960 0.016207 0.000000
v -0.037960 0.016207 0.000000
v -0.040927 0.005349 0.000000
v -0.040927 0.005349 0.000000
v -0.040850 -0.005907 0.000000
v -0.040850 -0.005907 0.000000
v -0.037735 -0.016724 0.000000
v -0.037735 -0.016724 0.000000
v -0.037735 -0.016724 0.000000
v -0.031794 -0.019257 0.000000
v -0.031794 -0.019257 0.000000
v -0.031794 -0.019257 0.000000
v -0.025213 -0.025502 0.000000
v -0.025213 -0.025502 0.000000
v -0.025213 -0.025502 0.000000
v -0.024069 -0.033531 0.000000
v -0.024069 -0.033531 0.000000
v -0.024069 -0.033531 0.000000
v -0.014463 -0.038658 0.000000
v -0.014463 -0.038658 0.000000
v -0.003851 -0.041095 0.000000
v -0.003851 -0.041095 0.000000
v 0.028216 -0.030125 0.018415
v 0.028216 -0.030125 0.018415
v 0.028216 -0.030125 0.018415
v 0.026338 -0.044237 0.018415
v 0.026338 -0.044237 0.018415
v 0.026338 -0.044237 0.018415
v 0.016302 -0.046899 0.018415
v 0.016302 -0.046899 0.018415
v 0.016302 -0.046899 0.018415
v 0.005155 -0.047840 0.018415
v 0.005155 -0.047840 0.018415
v -0.005979 -0.046755 0.018415
v -0.005979 -0.046755 0.018415
v -0.016734 -0.043676 0.018415
v -0.016734 -0.043676 0.018415
v -0.026757 -0.038707 0.018415
v -0.026757 -0.038707 0.018415
v -0.026757 -0.038707 0.018415
v -0.034637 -0.035577 0.018415
v -0.034637 -0.035577 0.018415
v -0.043111 -0.035306 0.018415
v -0.043111 -0.035306 0.018415
v -0.043111 -0.035306 0.018415
v -0.044100 -0.035257 0.018415
v -0.044100 -0.035257 0.018415
v -0.045002 -0.034845 0.018415
v -0.045002 -0.034845 0.018415
v -0.045685 -0.034130 0.018415
v -0.045685 -0.034130 0.018415
v -0.046055 -0.033210 0.018415
v -0.046055 -0.033210 0.018415
v -0.046058 -0.032220 0.018415
v -0.046058 -0.032220 0.018415
v -0.045695 -0.031302 0.018415
v -0.045695 -0.031302 0.018415
v -0.045016 -0.030581 0.018415
v -0.045016 -0.030581 0.018415
v -0.044121 -0.030164 0.018415
v -0.044121 -0.030164 0.018415
v -0.044121 -0.030164 0.018415
v -0.037697 -0.029534 0.018415
v -0.037697 -0.029534 0.018415
v -0.031373 -0.030818 0.018415
v -0.031373 -0.030818 0.018415
v -0.025703 -0.033903 0.018415
v -0.025703 -0.033903 0.018415
v -0.025703 -0.033903 0.018415
v -0.018088 -0.038464 0.018415
v -0.018088 -0.038464 0.018415
v -0.009674 -0.041292 0.018415
v -0.009674 -0.041292 0.018415
v -0.000850 -0.042255 0.018415
v -0.000850 -0.042255 0.018415
v 0.007977 -0.041309 0.018415
v 0.007977 -0.041309 0.018415
v 0.007977 -0.041309 0.018415
v 0.007028 -0.040672 0.018415
v 0.007028 -0.040672 0.018415
v 0.007028 -0.040672 0.018415
v -0.003851 -0.041095 0.018415
v -0.003851 -0.041095 0.018415
v -0.014463 -0.038658 0.018415
v -0.014463 -0.038658 0.018415
v -0.024069 -0.033531 0.018415
v -0.024069 -0.033531 0.018415
v -0.024069 -0.033531 0.018415
v -0.025213 -0.025502 0.018415
v -0.025213 -0.025502 0.018415
v -0.025213 -0.025502 0.018415
v -0.031794 -0.019257 0.018415
v -0.031794 -0.019257 0.018415
v -0.031794 -0.019257 0.018415
v -0.037735 -0.016724 0.018415
v -0.037735 -0.016724 0.018415
v -0.037735 -0.016724 0.018415
v -0.040850 -0.005907 0.018415
v -0.040850 -0.005907 0.018415
v -0.040927 0.005349 0.018415
v -0.040927 0.005349 0.018415
v -0.037960 0.016207 0.018415
v -0.037960 0.016207 0.018415
v -0.032170 0.025860 0.018415
v -0.032170 0.025860 0.018415
v -0.023987 0.033589 0.018415
v -0.023987 0.033589 0.018415
v -0.014021 0.038821 0.018415
v -0.014021 0.038821 0.018415
v -0.003012 0.041165 0.018415
v -0.003012 0.041165 0.018415
v 0.008220 0.040448 0.018415
v 0.008220 0.040448 0.018415
v 0.018842 0.036723 0.018415
v 0.018842 0.036723 0.018415
v 0.028062 0.030268 0.018415
v 0.028062 0.030268 0.018415
v 0.035195 0.021562 0.018415
v 0.035195 0.021562 0.018415
v 0.039712 0.011252 0.018415
v 0.039712 0.011252 0.018415
v 0.041275 0.000105 0.018415
v 0.041275 0.000105 0.018415
v 0.039769 -0.011049 0.018415
v 0.039769 -0.011049 0.018415
v 0.035305 -0.021382 0.018415
v 0.035305 -0.021382 0.018415
vn -0.0000 -0.0000 -1.0000
vn -0.5573 -0.8303 -0.0000
vn -0.0933 -0.9956 -0.0000
vn 0.1703 -0.9854 -0.0000
vn -0.2128 0.9771 -0.0000
vn 0.0010 1.0000 -0.0000
vn 0.2148 0.9767 -0.0000
vn 0.4186 0.9082 -0.0000
vn 0.6031 0.7976 -0.0000
vn 0.6031 0.7977 -0.0000
vn 0.3422 0.9396 -0.0000
vn 0.0512 0.9987 -0.0000
vn 0.0513 0.9987 -0.0000
vn -0.2443 0.9697 -0.0000
vn -0.2443 0.9697 0.0001
vn -0.5863 0.8101 -0.0000
vn -0.8441 0.5362 -0.0000
vn -0.8448 0.5351 -0.0000
vn -0.5857 0.8106 -0.0000
vn -0.9826 0.1857 -0.0000
vn -0.9828 0.1845 -0.0001
vn -0.9815 -0.1915 -0.0000
vn -0.9813 -0.1927 -0.0000
vn -0.8406 -0.5417 -0.0000
vn -0.8400 -0.5425 -0.0000
vn -0.5797 -0.8148 -0.0000
vn -0.5791 -0.8152 -0.0000
vn -0.2367 -0.9716 -0.0000
vn -0.2362 -0.9717 -0.0000
vn 0.1405 -0.9901 -0.0000
vn -0.2036 -0.9791 -0.0000
vn -0.5236 -0.8520 -0.0000
vn -0.3612 -0.9325 -0.0000
vn -0.1869 -0.9824 -0.0000
vn -0.0065 -1.0000 -0.0000
vn 0.1742 -0.9847 -0.0000
vn 0.2564 -0.9666 -0.0000
vn 0.9913 -0.1319 -0.0000
vn 0.6836 -0.7299 -0.0000
vn 0.8554 -0.5180 -0.0000
vn 0.9635 -0.2677 -0.0000
vn 1.0000 0.0026 -0.0000
vn 0.9621 0.2726 -0.0000
vn 0.8527 0.5224 -0.0000
vn 0.6799 0.7333 -0.0000
vn 0.4565 0.8897 -0.0000
vn 0.1992 0.9800 -0.0000
vn -0.0730 0.9973 -0.0000
vn -0.3397 0.9405 -0.0000
vn -0.5812 0.8138 -0.0000
vn -0.7794 0.6265 -0.0000
vn -0.9197 0.3927 -0.0000
vn -0.9916 0.1296 -0.0000
vn -0.9897 -0.1431 -0.0000
vn -0.9142 -0.4052 -0.0000
vn -0.3922 -0.9199 -0.0000
vn -0.6884 -0.7254 -0.0000
vn -0.9900 -0.1411 -0.0000
vn -0.5831 -0.8124 -0.0000
vn -0.5831 -0.8124 0.0001
vn -0.3504 -0.9366 -0.0000
vn -0.0000 -0.0000 1.0000
vt 0.326844 0.000000
vt 0.269224 0.000000
vt 0.265956 0.000000
vt 0.269224 0.412578
vt 0.133886 0.000000
vt 0.177913 0.000000
vt 0.221936 0.000000
vt 0.221936 0.419651
vt 0.265956 0.419651
vt 0.234139 0.000000
vt 0.176599 0.000000
vt 0.199190 0.000000
vt 0.234139 0.410918
vt 0.136838 0.000000
vt 0.164339 0.000000
vt 0.199190 0.409650
vt 0.109023 0.000000
vt 0.129541 0.000000
vt 0.164339 0.408836
vt 0.076046 0.000000
vt 0.105305 0.000000
vt 0.129541 0.408492
vt 0.077685 0.000000
vt 0.080072 0.000000
vt 0.082879 0.000000
vt 0.075889 0.000000
vt 0.086690 0.000000
vt 0.105308 0.396559
vt 0.075399 0.000000
vt 0.086687 0.367108
vt 0.075889 0.331814
vt 0.076044 0.320975
vt 0.075398 0.326284
vt 0.077678 0.316597
vt 0.080061 0.313620
vt 0.082869 0.312352
vt 0.085745 0.000000
vt 0.085740 0.312920
vt 0.088329 0.000000
vt 0.088328 0.315274
vt 0.090286 0.000000
vt 0.090286 0.319174
vt 0.109021 0.355144
vt 0.136838 0.373028
vt 0.216318 0.000000
vt 0.176599 0.375078
vt 0.293151 0.000000
vt 0.255345 0.000000
vt 0.216318 0.372448
vt 0.255345 0.365513
vt 0.326844 0.343505
vt 0.293151 0.355159
vt 0.362731 0.000000
vt 0.362731 0.419651
vt 0.107743 0.000000
vt 0.408251 0.000000
vt 0.045522 0.000000
vt 0.453770 0.000000
vt 0.408251 0.419651
vt 0.066721 0.000000
vt 0.000000 0.000000
vt 0.499289 0.000000
vt 0.453770 0.419651
vt 1.000000 0.000000
vt 0.544808 0.000000
vt 0.499289 0.419651
vt 0.954479 0.000000
vt 0.590326 0.000000
vt 0.544808 0.419651
vt 0.908958 0.000000
vt 0.635844 0.000000
vt 0.590326 0.419651
vt 0.863438 0.000000
vt 0.681363 0.000000
vt 0.635844 0.419651
vt 0.817919 0.000000
vt 0.726881 0.000000
vt 0.681363 0.419651
vt 0.772400 0.000000
vt 0.726881 0.419651
vt 0.772400 0.419651
vt 0.817919 0.419651
vt 0.863438 0.419651
vt 0.908958 0.419651
vt 0.954479 0.419651
vt 1.000000 0.419651
vt 0.000000 0.419651
vt 0.066721 0.459966
vt 0.045522 0.419651
vt 0.107743 0.474387
vt 0.133886 0.419651
vt 0.177913 0.419651
s 0
usemtl DEFAULT_MTL
f 54/1/1 4/2/1 1/3/1
f 161/4/2 3/3/2 6/2/2
f 99/5/1 54/1/1 1/3/1
f 102/6/1 99/5/1 1/3/1
f 104/7/1 102/6/1 1/3/1
s 1
f 166/8/3 105/7/3 2/3/4
s 0
f 164/9/2 3/3/2 161/4/2
s 1
f 166/8/3 2/3/4 163/9/4
s 0
f 54/1/1 7/10/1 4/2/1
s 1
f 160/4/5 5/2/5 8/10/6
s 0
f 45/11/1 9/12/1 7/10/1
s 1
f 158/13/6 8/10/6 10/12/7
s 0
f 54/1/1 45/11/1 7/10/1
s 1
f 160/4/5 8/10/6 158/13/6
s 0
f 42/14/1 11/15/1 9/12/1
s 1
f 156/16/7 10/12/7 12/15/8
s 0
f 45/11/1 42/14/1 9/12/1
s 1
f 158/13/6 10/12/7 156/16/7
s 0
f 40/17/1 13/18/1 11/15/1
s 1
f 154/19/8 12/15/8 15/18/9
s 0
f 42/14/1 40/17/1 11/15/1
s 1
f 156/16/7 12/15/8 154/19/8
s 0
f 25/20/1 16/21/1 13/18/1
s 1
f 151/22/10 14/18/10 17/21/11
s 0
f 27/23/1 25/20/1 13/18/1
f 29/24/1 27/23/1 13/18/1
f 31/25/1 29/24/1 13/18/1
f 40/17/1 31/25/1 13/18/1
s 1
f 154/19/8 15/18/9 152/22/9
s 0
f 20/26/1 18/27/1 16/21/1
s 1
f 149/28/11 17/21/11 19/27/12
s 0
f 23/29/1 20/26/1 16/21/1
f 25/20/1 23/29/1 16/21/1
s 1
f 151/22/10 17/21/11 149/28/11
f 147/30/13 19/27/12 22/26/14
f 149/28/11 19/27/12 147/30/13
f 144/31/14 21/26/15 24/29/16
f 147/30/13 22/26/14 145/31/14
f 140/32/17 24/29/16 26/20/18
f 142/33/19 24/29/16 140/32/17
f 144/31/14 24/29/16 142/33/19
f 138/34/20 26/20/18 28/23/21
f 140/32/17 26/20/18 138/34/20
f 136/35/22 28/23/21 30/24/23
f 138/34/20 28/23/21 136/35/22
f 134/36/24 30/24/23 32/25/25
f 136/35/22 30/24/23 134/36/24
s 0
f 40/17/1 33/37/1 31/25/1
s 1
f 132/38/26 32/25/25 34/37/27
f 134/36/24 32/25/25 132/38/26
s 0
f 40/17/1 35/39/1 33/37/1
s 1
f 130/40/28 34/37/27 36/39/29
f 132/38/26 34/37/27 130/40/28
s 0
f 40/17/1 37/41/1 35/39/1
s 1
f 130/40/28 36/39/29 39/41/30
f 127/42/30 38/41/30 41/17/31
f 130/40/28 39/41/30 128/42/30
f 125/43/31 41/17/31 44/14/32
f 127/42/30 41/17/31 125/43/31
f 122/44/32 43/14/32 46/11/33
f 125/43/31 44/14/32 123/44/32
s 0
f 54/1/1 47/45/1 45/11/1
s 1
f 120/46/33 46/11/33 48/45/34
f 122/44/32 46/11/33 120/46/33
s 0
f 51/47/1 49/48/1 47/45/1
s 1
f 118/49/34 48/45/34 50/48/35
s 0
f 54/1/1 51/47/1 47/45/1
s 1
f 120/46/33 48/45/34 118/49/34
f 116/50/35 50/48/35 53/47/36
f 118/49/34 50/48/35 116/50/35
s 0
f 111/51/37 52/47/37 56/1/37
f 113/52/37 52/47/37 111/51/37
s 1
f 116/50/35 53/47/36 114/52/36
s 0
f 99/5/1 57/53/1 54/1/1
f 108/54/38 55/1/38 59/53/38
f 110/51/38 55/1/38 108/54/38
f 96/55/1 60/56/1 57/53/1
s 1
f 107/54/39 58/53/39 61/56/40
s 0
f 99/5/1 96/55/1 57/53/1
f 90/57/1 62/58/1 60/56/1
s 1
f 210/59/40 61/56/40 63/58/41
s 0
f 93/60/1 90/57/1 60/56/1
f 96/55/1 93/60/1 60/56/1
s 1
f 210/59/40 107/54/39 61/56/40
s 0
f 88/61/1 64/62/1 62/58/1
s 1
f 208/63/41 63/58/41 65/62/42
s 0
f 90/57/1 88/61/1 62/58/1
s 1
f 210/59/40 63/58/41 208/63/41
s 0
f 86/64/1 66/65/1 64/62/1
s 1
f 206/66/42 65/62/42 67/65/43
s 0
f 88/61/1 86/64/1 64/62/1
s 1
f 208/63/41 65/62/42 206/66/42
s 0
f 84/67/1 68/68/1 66/65/1
s 1
f 204/69/43 67/65/43 69/68/44
s 0
f 86/64/1 84/67/1 66/65/1
s 1
f 206/66/42 67/65/43 204/69/43
s 0
f 82/70/1 70/71/1 68/68/1
s 1
f 202/72/44 69/68/44 71/71/45
s 0
f 84/67/1 82/70/1 68/68/1
s 1
f 204/69/43 69/68/44 202/72/44
s 0
f 80/73/1 72/74/1 70/71/1
s 1
f 200/75/45 71/71/45 73/74/46
s 0
f 82/70/1 80/73/1 70/71/1
s 1
f 202/72/44 71/71/45 200/75/45
s 0
f 78/76/1 74/77/1 72/74/1
s 1
f 198/78/46 73/74/46 75/77/47
s 0
f 80/73/1 78/76/1 72/74/1
s 1
f 200/75/45 73/74/46 198/78/46
s 0
f 78/76/1 76/79/1 74/77/1
s 1
f 196/80/47 75/77/47 77/79/48
f 198/78/46 75/77/47 196/80/47
f 194/81/48 77/79/48 79/76/49
f 196/80/47 77/79/48 194/81/48
f 192/82/49 79/76/49 81/73/50
f 194/81/48 79/76/49 192/82/49
f 190/83/50 81/73/50 83/70/51
f 192/82/49 81/73/50 190/83/50
f 188/84/51 83/70/51 85/67/52
f 190/83/50 83/70/51 188/84/51
f 186/85/52 85/67/52 87/64/53
f 188/84/51 85/67/52 186/85/52
f 184/86/53 87/64/53 89/61/54
f 186/85/52 87/64/53 184/86/53
f 182/87/54 89/61/54 91/57/55
f 184/86/53 89/61/54 182/87/54
s 0
f 176/88/56 92/57/56 94/60/56
f 180/89/56 92/57/56 176/88/56
s 1
f 182/87/54 91/57/55 179/89/55
s 0
f 173/90/57 95/60/57 97/55/57
f 177/88/57 95/60/57 173/90/57
f 171/91/58 98/55/58 101/5/58
f 174/90/58 98/55/58 171/91/58
s 1
f 170/91/59 100/5/60 103/6/61
f 168/92/61 103/6/61 105/7/3
f 170/91/59 103/6/61 168/92/61
f 168/92/61 105/7/3 166/8/3
s 0
f 159/4/62 109/51/62 106/54/62
f 162/9/62 159/4/62 106/54/62
f 167/92/62 162/9/62 106/54/62
f 169/91/62 167/92/62 106/54/62
f 172/90/62 169/91/62 106/54/62
f 209/59/62 172/90/62 106/54/62
f 117/49/62 112/52/62 109/51/62
f 119/46/62 117/49/62 109/51/62
f 157/13/62 119/46/62 109/51/62
f 159/4/62 157/13/62 109/51/62
f 117/49/62 115/50/62 112/52/62
f 155/16/62 121/44/62 119/46/62
f 157/13/62 155/16/62 119/46/62
f 153/19/62 124/43/62 121/44/62
f 155/16/62 153/19/62 121/44/62
f 150/22/62 126/42/62 124/43/62
f 153/19/62 150/22/62 124/43/62
f 150/22/62 129/40/62 126/42/62
f 150/22/62 131/38/62 129/40/62
f 150/22/62 133/36/62 131/38/62
f 150/22/62 135/35/62 133/36/62
f 148/28/62 137/34/62 135/35/62
f 150/22/62 148/28/62 135/35/62
f 148/28/62 139/32/62 137/34/62
f 148/28/62 141/33/62 139/32/62
f 146/30/62 143/31/62 141/33/62
f 148/28/62 146/30/62 141/33/62
f 167/92/62 165/8/62 162/9/62
f 209/59/62 175/88/62 172/90/62
f 207/63/62 178/89/62 175/88/62
f 209/59/62 207/63/62 175/88/62
f 207/63/62 181/87/62 178/89/62
f 205/66/62 183/86/62 181/87/62
f 207/63/62 205/66/62 181/87/62
f 203/69/62 185/85/62 183/86/62
f 205/66/62 203/69/62 183/86/62
f 201/72/62 187/84/62 185/85/62
f 203/69/62 201/72/62 185/85/62
f 199/75/62 189/83/62 187/84/62
f 201/72/62 199/75/62 187/84/62
f 197/78/62 191/82/62 189/83/62
f 199/75/62 197/78/62 189/83/62
f 195/80/62 193/81/62 191/82/62
f 197/78/62 195/80/62 191/82/62
