# Blender 4.0.0
# www.blender.org
mtllib side-cover.mtl
o side-cover
v -0.234997 -0.396582 0.218651
v -0.234997 -0.396582 0.220238
v -0.234997 -0.394995 0.220238
v -0.234997 -0.394995 0.218651
v 0.234997 -0.394995 0.220238
v 0.234997 -0.344583 0.220238
v -0.234997 -0.344583 0.220238
v 0.234997 -0.394995 0.218651
v 0.234997 -0.396582 0.220238
v 0.234997 -0.396582 0.218651
v 0.234997 -0.396582 0.005241
v -0.234997 -0.396582 0.005241
v -0.234997 -0.394995 0.005241
v 0.234997 -0.394995 0.005241
v -0.234997 -0.344583 0.218651
v 0.234997 -0.344583 0.218651
vn -0.7071 -0.7071 -0.0000
vn -0.5773 -0.5774 0.5774
vn -0.7071 -0.0000 0.7071
vn -0.9045 0.3015 -0.3015
vn 0.7071 -0.0000 0.7071
vn 0.5774 0.5774 0.5773
vn -0.5774 0.5773 0.5773
vn 0.9045 0.3015 -0.3015
vn 0.5773 -0.5774 0.5774
vn 0.7071 -0.7071 -0.0000
vn 0.5774 -0.5773 -0.5773
vn -0.5774 -0.5773 -0.5774
vn -0.5773 0.5774 -0.5773
vn 0.5773 0.5774 -0.5774
vn -0.5773 0.5774 -0.5774
s 1
usemtl new_mat_color.001
f 1//1 2//2 3//3
f 3//3 4//4 1//1
f 3//3 5//5 6//6
f 6//6 7//7 3//3
f 8//8 5//5 9//9
f 9//9 10//10 8//8
f 10//10 9//9 2//2
f 2//2 1//1 10//10
f 11//11 12//12 13//13
f 13//13 14//14 11//11
f 5//5 3//3 2//2
f 2//2 9//9 5//5
f 1//1 12//12 11//11
f 11//11 10//10 1//1
f 14//14 8//8 10//10
f 10//10 11//11 14//14
f 13//13 4//4 8//8
f 8//8 14//14 13//13
f 12//12 1//1 4//4
f 4//4 13//13 12//12
f 15//15 7//7 6//6
f 6//6 16//14 15//15
f 4//4 3//3 7//7
f 7//7 15//15 4//4
f 8//8 4//4 15//15
f 15//15 16//14 8//8
f 5//5 8//8 16//14
f 16//14 6//6 5//5
