# Blender 4.0.0
# www.blender.org
mtllib top.mtl
o top
v -0.282154 -0.394995 0.280000
v -0.282154 -0.394995 0.273650
v -0.280996 -0.394995 0.280000
v -0.280996 -0.394995 0.273650
v -0.164998 -0.394995 0.280000
v -0.164998 -0.394995 0.273650
v -0.086781 -0.394995 0.280000
v -0.085874 -0.394995 0.273650
v -0.025117 -0.394995 0.280000
v -0.022887 -0.394995 0.273650
v 0.025117 -0.394995 0.280000
v 0.022887 -0.394995 0.273650
v 0.065157 -0.394995 0.280000
v 0.067387 -0.394995 0.273650
v 0.164998 -0.394995 0.280000
v 0.164998 -0.394995 0.273650
v 0.280997 -0.394995 0.280000
v 0.280997 -0.394995 0.273650
v 0.282154 -0.394995 0.280000
v 0.282154 -0.394995 0.273650
v 0.463341 -0.026404 0.273650
v 0.463341 -0.026404 0.280000
v 0.458539 -0.048999 0.273650
v 0.458539 -0.048999 0.280000
v 0.422062 -0.220610 0.273650
v 0.422596 -0.218097 0.280000
v 0.418818 -0.235872 0.273650
v 0.417677 -0.241239 0.280000
v 0.412332 -0.266384 0.273650
v 0.411798 -0.268896 0.280000
v 0.406377 -0.294401 0.273650
v 0.406377 -0.294401 0.280000
v 0.465807 -0.008859 0.273650
v 0.465807 -0.008859 0.280000
v 0.465807 0.008859 0.273650
v 0.465807 0.008859 0.280000
v 0.463341 0.026405 0.273650
v 0.463341 0.026405 0.280000
v 0.458539 0.048999 0.280000
v 0.458539 0.048999 0.273650
v 0.434872 0.160341 0.280000
v 0.435346 0.158111 0.273650
v 0.421606 0.222755 0.280000
v 0.420465 0.228122 0.273650
v 0.411798 0.268897 0.280000
v 0.412332 0.266384 0.273650
v 0.406377 0.294401 0.280000
v 0.406377 0.294401 0.273650
v 0.282154 0.394995 0.280000
v 0.282154 0.394995 0.273650
v 0.280996 0.394995 0.280000
v 0.280996 0.394995 0.273650
v 0.164998 0.394995 0.280000
v 0.164998 0.394995 0.273650
v 0.065157 0.394995 0.280000
v 0.067387 0.394995 0.273650
v 0.025117 0.394995 0.280000
v 0.022887 0.394995 0.273650
v -0.025117 0.394995 0.280000
v -0.022887 0.394995 0.273650
v -0.086781 0.394995 0.280000
v -0.085874 0.394995 0.273650
v -0.164998 0.394995 0.280000
v -0.164998 0.394995 0.273650
v -0.280997 0.394995 0.280000
v -0.280997 0.394995 0.273650
v -0.282154 0.394995 0.280000
v -0.282154 0.394995 0.273650
v 0.362076 0.366693 0.280000
v -0.000000 -0.000000 0.280000
v 0.377636 0.351733 0.280000
v -0.000000 -0.000000 0.273650
v -0.417677 -0.241240 0.280000
v -0.422596 -0.218097 0.280000
v 0.344208 -0.378802 0.280000
v 0.324547 -0.387710 0.280000
v 0.400111 0.315057 0.273650
v 0.400111 0.315057 0.280000
v 0.390438 0.334353 0.273650
v 0.390438 0.334353 0.280000
v 0.377636 0.351733 0.273650
v 0.362076 0.366693 0.273650
v 0.344208 0.378802 0.273650
v 0.344208 0.378802 0.280000
v 0.324547 0.387711 0.273650
v 0.324547 0.387711 0.280000
v 0.303661 0.393161 0.273650
v 0.303661 0.393161 0.280000
v 0.400111 -0.315057 0.273650
v 0.390438 -0.334353 0.280000
v 0.390438 -0.334353 0.273650
v 0.377636 -0.351732 0.280000
v 0.377636 -0.351732 0.273650
v 0.362077 -0.366693 0.280000
v 0.362077 -0.366693 0.273650
v 0.344208 -0.378802 0.273650
v 0.324547 -0.387710 0.273650
v 0.303661 -0.393160 0.280000
v 0.303661 -0.393160 0.273650
v 0.401377 -0.310883 0.273650
v 0.402054 -0.308653 0.280000
v 0.400111 -0.315057 0.280000
v -0.465807 -0.008859 0.280000
v -0.465807 0.008859 0.280000
v -0.406377 0.294401 0.273650
v -0.412332 0.266384 0.273650
v -0.390438 -0.334353 0.280000
v -0.400111 -0.315057 0.280000
v -0.362077 0.366693 0.280000
v -0.344208 0.378802 0.280000
v -0.458539 -0.048999 0.280000
v -0.463341 0.026404 0.280000
v -0.458539 0.048999 0.280000
v -0.400111 0.315057 0.273650
v -0.458539 -0.048999 0.273650
v -0.422062 -0.220610 0.273650
v -0.418818 -0.235872 0.273650
v -0.402053 -0.308654 0.280000
v -0.406377 -0.294401 0.280000
v -0.377636 0.351732 0.280000
v -0.303661 -0.393161 0.280000
v -0.362077 0.366693 0.273650
v -0.377636 0.351732 0.273650
v -0.324547 -0.387711 0.280000
v -0.344208 -0.378802 0.280000
v -0.377636 -0.351733 0.280000
v -0.390438 0.334353 0.273650
v -0.412332 -0.266384 0.273650
v -0.406377 -0.294401 0.273650
v -0.377636 -0.351733 0.273650
v -0.362076 -0.366693 0.273650
v -0.406377 0.294401 0.280000
v -0.400111 0.315057 0.280000
v -0.434872 0.160340 0.280000
v -0.421606 0.222755 0.280000
v -0.390438 0.334353 0.280000
v -0.303661 0.393160 0.273650
v -0.344208 -0.378802 0.273650
v -0.411798 -0.268897 0.280000
v -0.324547 0.387710 0.273650
v -0.344208 0.378802 0.273650
v -0.463341 -0.026405 0.280000
v -0.324547 -0.387711 0.273650
v -0.463341 -0.026405 0.273650
v -0.463341 0.026404 0.273650
v -0.465807 0.008859 0.273650
v -0.465807 -0.008859 0.273650
v -0.411798 0.268896 0.280000
v -0.420465 0.228122 0.273650
v -0.435346 0.158110 0.273650
v -0.458539 0.048999 0.273650
v -0.303661 0.393160 0.280000
v -0.324547 0.387710 0.280000
v -0.401377 -0.310884 0.273650
v -0.400111 -0.315057 0.273650
v -0.390438 -0.334353 0.273650
v -0.362076 -0.366693 0.280000
v -0.303661 -0.393161 0.273650
vn -0.0305 -0.7158 0.6977
vn -0.0305 -0.7158 -0.6977
vn -0.0000 -0.7071 0.7071
vn -0.0000 -0.7071 -0.7071
vn 0.0305 -0.7158 0.6977
vn 0.0305 -0.7158 -0.6977
vn 0.7039 -0.1241 -0.6993
vn 0.7039 -0.1241 0.6993
vn 0.6917 -0.1470 -0.7071
vn 0.6917 -0.1470 0.7071
vn 0.6938 -0.1786 -0.6977
vn 0.6938 -0.1786 0.6977
vn 0.7204 -0.0504 -0.6917
vn 0.7204 -0.0504 0.6917
vn 0.7204 0.0504 -0.6917
vn 0.7204 0.0504 0.6917
vn 0.7039 0.1241 -0.6993
vn 0.7039 0.1241 0.6993
vn 0.6917 0.1470 0.7071
vn 0.6917 0.1470 -0.7071
vn 0.6938 0.1786 0.6977
vn 0.6938 0.1786 -0.6977
vn 0.0305 0.7158 0.6977
vn 0.0305 0.7158 -0.6977
vn -0.0000 0.7071 0.7071
vn -0.0000 0.7071 -0.7071
vn -0.0305 0.7158 0.6977
vn -0.0305 0.7158 -0.6977
vn 0.4564 0.5636 0.6885
vn -0.0000 -0.0000 1.0000
vn 0.5453 0.4782 0.6885
vn -0.0000 -0.0000 -1.0000
vn -0.6917 -0.1470 0.7071
vn 0.3544 -0.6328 0.6885
vn 0.2421 -0.6837 0.6885
vn 0.6736 0.2688 -0.6885
vn 0.6736 0.2688 0.6885
vn 0.6184 0.3789 -0.6885
vn 0.6184 0.3789 0.6885
vn 0.5453 0.4782 -0.6885
vn 0.4564 0.5636 -0.6885
vn 0.3544 0.6328 -0.6885
vn 0.3544 0.6328 0.6885
vn 0.2421 0.6837 -0.6885
vn 0.2421 0.6837 0.6885
vn 0.1228 0.7148 -0.6885
vn 0.1228 0.7148 0.6885
vn 0.6736 -0.2688 -0.6885
vn 0.6184 -0.3789 0.6885
vn 0.6184 -0.3789 -0.6885
vn 0.5453 -0.4782 0.6885
vn 0.5453 -0.4782 -0.6885
vn 0.4564 -0.5636 0.6885
vn 0.4564 -0.5636 -0.6885
vn 0.3544 -0.6328 -0.6885
vn 0.2421 -0.6837 -0.6885
vn 0.1228 -0.7148 0.6885
vn 0.1228 -0.7148 -0.6885
vn 0.6767 -0.2053 -0.7071
vn 0.6767 -0.2053 0.7071
vn 0.6736 -0.2688 0.6885
vn -0.7204 -0.0504 0.6917
vn -0.7204 0.0504 0.6917
vn -0.6938 0.1786 -0.6977
vn -0.6917 0.1470 -0.7071
vn -0.6184 -0.3789 0.6885
vn -0.6736 -0.2688 0.6885
vn -0.4564 0.5636 0.6885
vn -0.3544 0.6328 0.6885
vn -0.7039 0.1241 0.6993
vn -0.6917 0.1470 0.7071
vn -0.6736 0.2688 -0.6885
vn -0.6917 -0.1470 -0.7071
vn -0.6767 -0.2053 0.7071
vn -0.6938 -0.1786 0.6977
vn -0.5453 0.4782 0.6885
vn -0.1228 -0.7148 0.6885
vn -0.4564 0.5636 -0.6885
vn -0.5453 0.4782 -0.6885
vn -0.2421 -0.6837 0.6885
vn -0.3544 -0.6328 0.6885
vn -0.5453 -0.4782 0.6885
vn -0.6184 0.3789 -0.6885
vn -0.6938 -0.1786 -0.6977
vn -0.5453 -0.4782 -0.6885
vn -0.4564 -0.5636 -0.6885
vn -0.6938 0.1786 0.6977
vn -0.6736 0.2688 0.6885
vn -0.6184 0.3789 0.6885
vn -0.1228 0.7148 -0.6885
vn -0.3544 -0.6328 -0.6885
vn -0.2421 0.6837 -0.6885
vn -0.3544 0.6328 -0.6885
vn -0.7039 -0.1241 0.6993
vn -0.2421 -0.6837 -0.6885
vn -0.7039 -0.1241 -0.6993
vn -0.7039 0.1241 -0.6993
vn -0.7204 0.0504 -0.6917
vn -0.7204 -0.0504 -0.6917
vn -0.1228 0.7148 0.6885
vn -0.2421 0.6837 0.6885
vn -0.6767 -0.2053 -0.7071
vn -0.6736 -0.2687 -0.6885
vn -0.6184 -0.3790 -0.6885
vn -0.4564 -0.5636 0.6885
vn -0.1228 -0.7148 -0.6885
s 1
usemtl new_mat_color.005
f 1//1 2//2 3//3
f 3//3 2//2 4//4
f 3//3 4//4 5//3
f 5//3 4//4 6//4
f 5//3 6//4 7//3
f 7//3 6//4 8//4
f 7//3 8//4 9//3
f 9//3 8//4 10//4
f 9//3 10//4 11//3
f 11//3 10//4 12//4
f 11//3 12//4 13//3
f 13//3 12//4 14//4
f 13//3 14//4 15//3
f 15//3 14//4 16//4
f 15//3 16//4 17//3
f 17//3 16//4 18//4
f 17//3 18//4 19//5
f 19//5 18//4 20//6
f 21//7 22//8 23//9
f 23//9 22//8 24//10
f 23//9 24//10 25//9
f 25//9 24//10 26//10
f 25//9 26//10 27//9
f 27//9 26//10 28//10
f 27//9 28//10 29//9
f 29//9 28//10 30//10
f 29//9 30//10 31//11
f 31//11 30//10 32//12
f 22//8 21//7 33//13
f 22//8 33//13 34//14
f 34//14 33//13 35//15
f 34//14 35//15 36//16
f 36//16 35//15 37//17
f 36//16 37//17 38//18
f 38//18 37//17 39//19
f 39//19 37//17 40//20
f 39//19 40//20 41//19
f 41//19 40//20 42//20
f 41//19 42//20 43//19
f 43//19 42//20 44//20
f 43//19 44//20 45//19
f 45//19 44//20 46//20
f 45//19 46//20 47//21
f 47//21 46//20 48//22
f 49//23 50//24 51//25
f 51//25 50//24 52//26
f 51//25 52//26 53//25
f 53//25 52//26 54//26
f 53//25 54//26 55//25
f 55//25 54//26 56//26
f 55//25 56//26 57//25
f 57//25 56//26 58//26
f 57//25 58//26 59//25
f 59//25 58//26 60//26
f 59//25 60//26 61//25
f 61//25 60//26 62//26
f 61//25 62//26 63//25
f 63//25 62//26 64//26
f 63//25 64//26 65//25
f 65//25 64//26 66//26
f 65//25 66//26 67//27
f 67//27 66//26 68//28
f 69//29 70//30 71//31
f 52//26 72//32 54//26
f 8//4 72//32 10//4
f 73//33 70//30 74//33
f 75//34 70//30 76//35
f 5//3 70//30 3//3
f 47//21 48//22 77//36
f 47//21 77//36 78//37
f 78//37 77//36 79//38
f 78//37 79//38 80//39
f 80//39 79//38 81//40
f 80//39 81//40 71//31
f 71//31 81//40 82//41
f 71//31 82//41 69//29
f 69//29 82//41 83//42
f 69//29 83//42 84//43
f 84//43 83//42 85//44
f 84//43 85//44 86//45
f 86//45 85//44 87//46
f 86//45 87//46 88//47
f 88//47 87//46 50//24
f 88//47 50//24 49//23
f 89//48 90//49 91//50
f 91//50 90//49 92//51
f 91//50 92//51 93//52
f 93//52 92//51 94//53
f 93//52 94//53 95//54
f 95//54 94//53 75//34
f 95//54 75//34 96//55
f 96//55 75//34 76//35
f 96//55 76//35 97//56
f 97//56 76//35 98//57
f 97//56 98//57 99//58
f 99//58 98//57 19//5
f 99//58 19//5 20//6
f 31//11 32//12 100//59
f 100//59 32//12 101//60
f 100//59 101//60 89//48
f 89//48 101//60 102//61
f 89//48 102//61 90//49
f 103//62 70//30 104//63
f 45//19 70//30 43//19
f 16//4 72//32 18//4
f 105//64 72//32 106//65
f 41//19 70//30 39//19
f 18//4 72//32 20//6
f 76//35 70//30 98//57
f 107//66 70//30 108//67
f 109//68 70//30 110//69
f 74//33 70//30 111//33
f 112//70 70//30 113//71
f 62//26 72//32 64//26
f 3//3 70//30 1//1
f 88//47 70//30 86//45
f 49//23 70//30 88//47
f 91//50 72//32 89//48
f 40//20 72//32 42//20
f 27//9 72//32 25//9
f 44//20 72//32 46//20
f 96//55 72//32 95//54
f 114//72 72//32 105//64
f 81//40 72//32 82//41
f 85//44 72//32 87//46
f 32//12 70//30 101//60
f 28//10 70//30 30//10
f 79//38 72//32 81//40
f 115//73 72//32 116//73
f 116//73 72//32 117//73
f 118//74 70//30 119//75
f 2//2 72//32 4//4
f 120//76 70//30 109//68
f 11//3 70//30 9//3
f 1//1 70//30 121//77
f 9//3 70//30 7//3
f 80//39 70//30 78//37
f 47//21 70//30 45//19
f 36//16 70//30 34//14
f 122//78 72//32 123//79
f 38//18 70//30 36//16
f 87//46 72//32 50//24
f 124//80 70//30 125//81
f 126//82 70//30 107//66
f 86//45 70//30 84//43
f 19//5 70//30 17//3
f 123//79 72//32 127//83
f 128//73 72//32 129//84
f 60//26 72//32 62//26
f 130//85 72//32 131//86
f 117//73 72//32 128//73
f 132//87 70//30 133//88
f 134//71 70//30 135//71
f 99//58 72//32 97//56
f 133//88 70//30 136//89
f 42//20 72//32 44//20
f 100//59 72//32 31//11
f 136//89 70//30 120//76
f 24//10 70//30 26//10
f 34//14 70//30 22//8
f 43//19 70//30 41//19
f 68//28 72//32 137//90
f 94//53 70//30 75//34
f 131//86 72//32 138//91
f 139//33 70//30 73//33
f 140//92 72//32 141//93
f 142//94 70//30 103//62
f 83//42 72//32 85//44
f 138//91 72//32 143//95
f 127//83 72//32 114//72
f 10//4 72//32 12//4
f 50//24 72//32 52//26
f 93//52 72//32 91//50
f 102//61 70//30 90//49
f 64//26 72//32 66//26
f 89//48 72//32 100//59
f 119//75 70//30 139//33
f 82//41 72//32 83//42
f 66//26 72//32 68//28
f 65//25 70//30 63//25
f 129//84 119//75 128//73
f 128//73 119//75 139//33
f 128//73 139//33 117//73
f 117//73 139//33 73//33
f 117//73 73//33 116//73
f 116//73 73//33 74//33
f 116//73 74//33 115//73
f 115//73 74//33 111//33
f 115//73 111//33 144//96
f 144//96 111//33 142//94
f 112//70 145//97 146//98
f 112//70 146//98 104//63
f 104//63 146//98 147//99
f 104//63 147//99 103//62
f 103//62 147//99 144//96
f 103//62 144//96 142//94
f 132//87 105//64 148//71
f 148//71 105//64 106//65
f 148//71 106//65 135//71
f 135//71 106//65 149//65
f 135//71 149//65 134//71
f 134//71 149//65 150//65
f 134//71 150//65 113//71
f 113//71 150//65 151//65
f 113//71 151//65 112//70
f 112//70 151//65 145//97
f 67//27 68//28 137//90
f 67//27 137//90 152//100
f 152//100 137//90 140//92
f 152//100 140//92 153//101
f 153//101 140//92 141//93
f 153//101 141//93 110//69
f 110//69 141//93 122//78
f 110//69 122//78 109//68
f 109//68 122//78 123//79
f 109//68 123//79 120//76
f 120//76 123//79 127//83
f 120//76 127//83 136//89
f 136//89 127//83 114//72
f 136//89 114//72 133//88
f 133//88 114//72 105//64
f 133//88 105//64 132//87
f 119//75 129//84 118//74
f 118//74 129//84 154//102
f 118//74 154//102 108//67
f 154//102 155//103 108//67
f 108//67 155//103 156//104
f 108//67 156//104 107//66
f 107//66 156//104 130//85
f 107//66 130//85 126//82
f 126//82 130//85 131//86
f 126//82 131//86 157//105
f 157//105 131//86 138//91
f 157//105 138//91 125//81
f 125//81 138//91 143//95
f 125//81 143//95 124//80
f 124//80 143//95 158//106
f 124//80 158//106 121//77
f 121//77 158//106 2//2
f 121//77 2//2 1//1
f 31//11 72//32 29//9
f 144//96 72//32 115//73
f 61//25 70//30 59//25
f 154//102 72//32 155//103
f 129//84 72//32 154//102
f 26//10 70//30 28//10
f 23//9 72//32 21//7
f 145//97 72//32 146//98
f 22//8 70//30 24//10
f 58//26 72//32 60//26
f 29//9 72//32 27//9
f 48//22 72//32 77//36
f 150//65 72//32 151//65
f 57//25 70//30 55//25
f 143//95 72//32 158//106
f 121//77 70//30 124//80
f 51//25 70//30 49//23
f 17//3 70//30 15//3
f 106//65 72//32 149//65
f 157//105 70//30 126//82
f 20//6 72//32 99//58
f 78//37 70//30 47//21
f 135//71 70//30 148//71
f 63//25 70//30 61//25
f 30//10 70//30 32//12
f 148//71 70//30 132//87
f 90//49 70//30 92//51
f 12//4 72//32 14//4
f 67//27 70//30 65//25
f 149//65 72//32 150//65
f 152//100 70//30 67//27
f 104//63 70//30 112//70
f 59//25 70//30 57//25
f 155//103 72//32 156//104
f 95//54 72//32 93//52
f 53//25 70//30 51//25
f 97//56 72//32 96//55
f 15//3 70//30 13//3
f 33//13 72//32 35//15
f 101//60 70//30 102//61
f 98//57 70//30 19//5
f 156//104 72//32 130//85
f 141//93 72//32 122//78
f 111//33 70//30 142//94
f 21//7 72//32 33//13
f 113//71 70//30 134//71
f 6//4 72//32 8//4
f 77//36 72//32 79//38
f 39//19 70//30 38//18
f 153//101 70//30 152//100
f 110//69 70//30 153//101
f 147//99 72//32 144//96
f 7//3 70//30 5//3
f 151//65 72//32 145//97
f 46//20 72//32 48//22
f 146//98 72//32 147//99
f 13//3 70//30 11//3
f 92//51 70//30 94//53
f 35//15 72//32 37//17
f 158//106 72//32 2//2
f 14//4 72//32 16//4
f 55//25 70//30 53//25
f 71//31 70//30 80//39
f 84//43 70//30 69//29
f 25//9 72//32 23//9
f 137//90 72//32 140//92
f 4//4 72//32 6//4
f 125//81 70//30 157//105
f 108//67 70//30 118//74
f 37//17 72//32 40//20
f 54//26 72//32 56//26
f 56//26 72//32 58//26
