# Blender 4.0.0
# www.blender.org
mtllib wheel.mtl
o wheel
v 0.076200 0.000000 0.039500
v 0.075768 0.008100 -0.039500
v 0.075768 0.008100 0.039500
v 0.074478 0.016107 -0.039500
v 0.074478 0.016107 0.039500
v 0.072344 0.023933 -0.039500
v 0.072344 0.023933 0.039500
v 0.069390 0.031487 -0.039500
v 0.069390 0.031487 0.039500
v 0.065650 0.038684 -0.039500
v 0.065650 0.038684 0.039500
v 0.061167 0.045443 -0.039500
v 0.061167 0.045443 0.039500
v 0.055990 0.051687 -0.039500
v 0.055990 0.051687 0.039500
v 0.050179 0.057346 -0.039500
v 0.050179 0.057346 0.039500
v 0.043799 0.062355 -0.039500
v 0.043799 0.062355 0.039500
v 0.036923 0.066657 -0.039500
v 0.036923 0.066657 0.039500
v 0.029628 0.070204 -0.039500
v 0.029628 0.070204 0.039500
v 0.021998 0.072956 -0.039500
v 0.021998 0.072956 0.039500
v 0.014119 0.074881 -0.039500
v 0.014119 0.074881 0.039500
v 0.006080 0.075957 -0.039500
v 0.006080 0.075957 0.039500
v -0.002028 0.076173 -0.039500
v -0.002028 0.076173 0.039500
v -0.010114 0.075526 -0.039500
v -0.010114 0.075526 0.039500
v -0.018084 0.074023 -0.039500
v -0.018084 0.074023 0.039500
v -0.025850 0.071681 -0.039500
v -0.025850 0.071681 0.039500
v -0.033323 0.068528 -0.039500
v -0.033323 0.068528 0.039500
v -0.040418 0.064597 -0.039500
v -0.040418 0.064597 0.039500
v -0.047055 0.059935 -0.039500
v -0.047055 0.059935 0.039500
v -0.053160 0.054594 -0.039500
v -0.053160 0.054594 0.039500
v -0.058661 0.048634 -0.039500
v -0.058661 0.048634 0.039500
v -0.063499 0.042123 -0.039500
v -0.063499 0.042123 0.039500
v -0.067616 0.035135 -0.039500
v -0.067616 0.035135 0.039500
v -0.070968 0.027749 -0.039500
v -0.070968 0.027749 0.039500
v -0.073515 0.020048 -0.039500
v -0.073515 0.020048 0.039500
v -0.075230 0.012121 -0.039500
v -0.075230 0.012121 0.039500
v -0.076092 0.004056 -0.039500
v -0.076092 0.004056 0.039500
v -0.076092 -0.004056 -0.039500
v -0.076092 -0.004056 0.039500
v -0.075230 -0.012121 -0.039500
v -0.075230 -0.012121 0.039500
v -0.073515 -0.020048 -0.039500
v -0.073515 -0.020048 0.039500
v -0.070968 -0.027749 -0.039500
v -0.070968 -0.027749 0.039500
v -0.067616 -0.035135 -0.039500
v -0.067616 -0.035135 0.039500
v -0.063499 -0.042123 -0.039500
v -0.063499 -0.042123 0.039500
v -0.058661 -0.048634 -0.039500
v -0.058661 -0.048634 0.039500
v -0.053160 -0.054594 -0.039500
v -0.053160 -0.054594 0.039500
v -0.047055 -0.059935 -0.039500
v -0.047055 -0.059935 0.039500
v -0.040418 -0.064597 -0.039500
v -0.040418 -0.064597 0.039500
v -0.033323 -0.068528 -0.039500
v -0.033323 -0.068528 0.039500
v -0.025850 -0.071681 -0.039500
v -0.025850 -0.071681 0.039500
v -0.018084 -0.074023 -0.039500
v -0.018084 -0.074023 0.039500
v -0.010114 -0.075526 -0.039500
v -0.010114 -0.075526 0.039500
v -0.002028 -0.076173 -0.039500
v -0.002028 -0.076173 0.039500
v 0.006080 -0.075957 -0.039500
v 0.006080 -0.075957 0.039500
v 0.014119 -0.074881 -0.039500
v 0.014119 -0.074881 0.039500
v 0.021998 -0.072956 -0.039500
v 0.021998 -0.072956 0.039500
v 0.029628 -0.070204 -0.039500
v 0.029628 -0.070204 0.039500
v 0.036923 -0.066657 -0.039500
v 0.036923 -0.066657 0.039500
v 0.043799 -0.062355 -0.039500
v 0.043799 -0.062355 0.039500
v 0.050179 -0.057346 -0.039500
v 0.050179 -0.057346 0.039500
v 0.055990 -0.051687 -0.039500
v 0.055990 -0.051687 0.039500
v 0.061167 -0.045443 -0.039500
v 0.061167 -0.045443 0.039500
v 0.065650 -0.038684 -0.039500
v 0.065650 -0.038684 0.039500
v 0.069390 -0.031487 -0.039500
v 0.069390 -0.031487 0.039500
v 0.072344 -0.023933 -0.039500
v 0.072344 -0.023933 0.039500
v 0.074478 -0.016107 -0.039500
v 0.074478 -0.016107 0.039500
v 0.075768 -0.008100 -0.039500
v 0.075768 -0.008100 0.039500
v 0.076200 0.000000 -0.039500
v 0.000000 0.000000 -0.039500
v 0.076200 -0.000000 0.039500
v 0.000000 0.000000 0.039500
vn 1.0000 -0.0000 -0.0000
vn 0.7146 0.0764 -0.6953
vn 0.7146 0.0764 0.6953
vn 0.7025 0.1519 -0.6953
vn 0.7025 0.1519 0.6953
vn 0.6823 0.2257 -0.6953
vn 0.6823 0.2257 0.6953
vn 0.6545 0.2970 -0.6953
vn 0.6545 0.2970 0.6953
vn 0.6192 0.3649 -0.6953
vn 0.6192 0.3649 0.6953
vn 0.5769 0.4286 -0.6953
vn 0.5769 0.4286 0.6953
vn 0.5281 0.4875 -0.6953
vn 0.5281 0.4875 0.6953
vn 0.4733 0.5409 -0.6953
vn 0.4733 0.5409 0.6953
vn 0.4131 0.5881 -0.6953
vn 0.4131 0.5881 0.6953
vn 0.3482 0.6287 -0.6953
vn 0.3482 0.6287 0.6953
vn 0.2794 0.6621 -0.6953
vn 0.2794 0.6621 0.6953
vn 0.2075 0.6881 -0.6953
vn 0.2075 0.6881 0.6953
vn 0.1332 0.7063 -0.6953
vn 0.1332 0.7063 0.6953
vn 0.0573 0.7164 -0.6953
vn 0.0573 0.7164 0.6953
vn -0.0191 0.7184 -0.6953
vn -0.0191 0.7184 0.6953
vn -0.0954 0.7123 -0.6953
vn -0.0954 0.7123 0.6953
vn -0.1706 0.6982 -0.6953
vn -0.1706 0.6982 0.6953
vn -0.2438 0.6761 -0.6953
vn -0.2438 0.6761 0.6953
vn -0.3143 0.6463 -0.6953
vn -0.3143 0.6463 0.6953
vn -0.3812 0.6093 -0.6953
vn -0.3812 0.6093 0.6953
vn -0.4438 0.5653 -0.6953
vn -0.4438 0.5653 0.6953
vn -0.5014 0.5149 -0.6953
vn -0.5014 0.5149 0.6953
vn -0.5533 0.4587 -0.6953
vn -0.5533 0.4587 0.6953
vn -0.5989 0.3973 -0.6953
vn -0.5989 0.3973 0.6953
vn -0.6377 0.3314 -0.6953
vn -0.6377 0.3314 0.6953
vn -0.6694 0.2617 -0.6953
vn -0.6694 0.2617 0.6953
vn -0.6934 0.1891 -0.6953
vn -0.6934 0.1891 0.6953
vn -0.7095 0.1143 -0.6953
vn -0.7095 0.1143 0.6953
vn -0.7177 0.0383 -0.6953
vn -0.7177 0.0383 0.6953
vn -0.7177 -0.0383 -0.6953
vn -0.7177 -0.0383 0.6953
vn -0.7095 -0.1143 -0.6953
vn -0.7095 -0.1143 0.6953
vn -0.6934 -0.1891 -0.6953
vn -0.6934 -0.1891 0.6953
vn -0.6694 -0.2617 -0.6953
vn -0.6694 -0.2617 0.6953
vn -0.6377 -0.3314 -0.6953
vn -0.6377 -0.3314 0.6953
vn -0.5989 -0.3973 -0.6953
vn -0.5989 -0.3973 0.6953
vn -0.5533 -0.4587 -0.6953
vn -0.5533 -0.4587 0.6953
vn -0.5014 -0.5149 -0.6953
vn -0.5014 -0.5149 0.6953
vn -0.4438 -0.5653 -0.6953
vn -0.4438 -0.5653 0.6953
vn -0.3812 -0.6093 -0.6953
vn -0.3812 -0.6093 0.6953
vn -0.3143 -0.6463 -0.6953
vn -0.3143 -0.6463 0.6953
vn -0.2438 -0.6761 -0.6953
vn -0.2438 -0.6761 0.6953
vn -0.1706 -0.6982 -0.6953
vn -0.1706 -0.6982 0.6953
vn -0.0954 -0.7123 -0.6953
vn -0.0954 -0.7123 0.6953
vn -0.0191 -0.7184 -0.6953
vn -0.0191 -0.7184 0.6953
vn 0.0573 -0.7164 -0.6953
vn 0.0573 -0.7164 0.6953
vn 0.1332 -0.7063 -0.6953
vn 0.1332 -0.7063 0.6953
vn 0.2075 -0.6881 -0.6953
vn 0.2075 -0.6881 0.6953
vn 0.2794 -0.6621 -0.6953
vn 0.2794 -0.6621 0.6953
vn 0.3482 -0.6287 -0.6953
vn 0.3482 -0.6287 0.6953
vn 0.4131 -0.5881 -0.6953
vn 0.4131 -0.5881 0.6953
vn 0.4733 -0.5409 -0.6953
vn 0.4733 -0.5409 0.6953
vn 0.5281 -0.4875 -0.6953
vn 0.5281 -0.4875 0.6953
vn 0.5769 -0.4286 -0.6953
vn 0.5769 -0.4286 0.6953
vn 0.6192 -0.3649 -0.6953
vn 0.6192 -0.3649 0.6953
vn 0.6545 -0.2970 -0.6953
vn 0.6545 -0.2970 0.6953
vn 0.6823 -0.2257 -0.6953
vn 0.6823 -0.2257 0.6953
vn 0.7025 -0.1519 -0.6953
vn 0.7025 -0.1519 0.6953
vn 0.7146 -0.0764 -0.6953
vn 0.7146 -0.0764 0.6953
vn 0.7187 -0.0000 -0.6953
vn -0.0000 -0.0000 -1.0000
vn -0.0000 -0.0000 1.0000
s 1
usemtl new_mat_color.007
f 1//1 2//2 3//3
f 3//3 2//2 4//4
f 3//3 4//4 5//5
f 5//5 4//4 6//6
f 5//5 6//6 7//7
f 7//7 6//6 8//8
f 7//7 8//8 9//9
f 9//9 8//8 10//10
f 9//9 10//10 11//11
f 11//11 10//10 12//12
f 11//11 12//12 13//13
f 13//13 12//12 14//14
f 13//13 14//14 15//15
f 15//15 14//14 16//16
f 15//15 16//16 17//17
f 17//17 16//16 18//18
f 17//17 18//18 19//19
f 19//19 18//18 20//20
f 19//19 20//20 21//21
f 21//21 20//20 22//22
f 21//21 22//22 23//23
f 23//23 22//22 24//24
f 23//23 24//24 25//25
f 25//25 24//24 26//26
f 25//25 26//26 27//27
f 27//27 26//26 28//28
f 27//27 28//28 29//29
f 29//29 28//28 30//30
f 29//29 30//30 31//31
f 31//31 30//30 32//32
f 31//31 32//32 33//33
f 33//33 32//32 34//34
f 33//33 34//34 35//35
f 35//35 34//34 36//36
f 35//35 36//36 37//37
f 37//37 36//36 38//38
f 37//37 38//38 39//39
f 39//39 38//38 40//40
f 39//39 40//40 41//41
f 41//41 40//40 42//42
f 41//41 42//42 43//43
f 43//43 42//42 44//44
f 43//43 44//44 45//45
f 45//45 44//44 46//46
f 45//45 46//46 47//47
f 47//47 46//46 48//48
f 47//47 48//48 49//49
f 49//49 48//48 50//50
f 49//49 50//50 51//51
f 51//51 50//50 52//52
f 51//51 52//52 53//53
f 53//53 52//52 54//54
f 53//53 54//54 55//55
f 55//55 54//54 56//56
f 55//55 56//56 57//57
f 57//57 56//56 58//58
f 57//57 58//58 59//59
f 59//59 58//58 60//60
f 59//59 60//60 61//61
f 61//61 60//60 62//62
f 61//61 62//62 63//63
f 63//63 62//62 64//64
f 63//63 64//64 65//65
f 65//65 64//64 66//66
f 65//65 66//66 67//67
f 67//67 66//66 68//68
f 67//67 68//68 69//69
f 69//69 68//68 70//70
f 69//69 70//70 71//71
f 71//71 70//70 72//72
f 71//71 72//72 73//73
f 73//73 72//72 74//74
f 73//73 74//74 75//75
f 75//75 74//74 76//76
f 75//75 76//76 77//77
f 77//77 76//76 78//78
f 77//77 78//78 79//79
f 79//79 78//78 80//80
f 79//79 80//80 81//81
f 81//81 80//80 82//82
f 81//81 82//82 83//83
f 83//83 82//82 84//84
f 83//83 84//84 85//85
f 85//85 84//84 86//86
f 85//85 86//86 87//87
f 87//87 86//86 88//88
f 87//87 88//88 89//89
f 89//89 88//88 90//90
f 89//89 90//90 91//91
f 91//91 90//90 92//92
f 91//91 92//92 93//93
f 93//93 92//92 94//94
f 93//93 94//94 95//95
f 95//95 94//94 96//96
f 95//95 96//96 97//97
f 97//97 96//96 98//98
f 97//97 98//98 99//99
f 99//99 98//98 100//100
f 99//99 100//100 101//101
f 101//101 100//100 102//102
f 101//101 102//102 103//103
f 103//103 102//102 104//104
f 103//103 104//104 105//105
f 105//105 104//104 106//106
f 105//105 106//106 107//107
f 107//107 106//106 108//108
f 107//107 108//108 109//109
f 109//109 108//108 110//110
f 109//109 110//110 111//111
f 111//111 110//110 112//112
f 111//111 112//112 113//113
f 113//113 112//112 114//114
f 113//113 114//114 115//115
f 115//115 114//114 116//116
f 115//115 116//116 117//117
f 117//117 116//116 118//118
f 117//117 118//118 1//1
f 1//1 118//118 2//2
f 118//118 116//116 119//119
f 118//118 119//119 2//2
f 8//8 6//6 119//119
f 119//119 6//6 4//4
f 119//119 4//4 2//2
f 14//14 12//12 119//119
f 119//119 12//12 10//10
f 119//119 10//10 8//8
f 20//20 18//18 119//119
f 119//119 18//18 16//16
f 119//119 16//16 14//14
f 26//26 24//24 119//119
f 119//119 24//24 22//22
f 119//119 22//22 20//20
f 32//32 30//30 119//119
f 119//119 30//30 28//28
f 119//119 28//28 26//26
f 38//38 36//36 119//119
f 119//119 36//36 34//34
f 119//119 34//34 32//32
f 44//44 42//42 119//119
f 119//119 42//42 40//40
f 119//119 40//40 38//38
f 50//50 48//48 119//119
f 119//119 48//48 46//46
f 119//119 46//46 44//44
f 56//56 54//54 119//119
f 119//119 54//54 52//52
f 119//119 52//52 50//50
f 62//62 60//60 119//119
f 119//119 60//60 58//58
f 119//119 58//58 56//56
f 68//68 66//66 119//119
f 119//119 66//66 64//64
f 119//119 64//64 62//62
f 74//74 72//72 119//119
f 119//119 72//72 70//70
f 119//119 70//70 68//68
f 80//80 78//78 119//119
f 119//119 78//78 76//76
f 119//119 76//76 74//74
f 86//86 84//84 119//119
f 119//119 84//84 82//82
f 119//119 82//82 80//80
f 92//92 90//90 119//119
f 119//119 90//90 88//88
f 119//119 88//88 86//86
f 98//98 96//96 119//119
f 119//119 96//96 94//94
f 119//119 94//94 92//92
f 104//104 102//102 119//119
f 119//119 102//102 100//100
f 119//119 100//100 98//98
f 110//110 108//108 119//119
f 119//119 108//108 106//106
f 119//119 106//106 104//104
f 116//116 114//114 119//119
f 119//119 114//114 112//112
f 119//119 112//112 110//110
f 120//120 3//3 121//120
f 120//120 121//120 117//117
f 111//111 113//113 121//120
f 121//120 113//113 115//115
f 121//120 115//115 117//117
f 105//105 107//107 121//120
f 121//120 107//107 109//109
f 121//120 109//109 111//111
f 99//99 101//101 121//120
f 121//120 101//101 103//103
f 121//120 103//103 105//105
f 93//93 95//95 121//120
f 121//120 95//95 97//97
f 121//120 97//97 99//99
f 87//87 89//89 121//120
f 121//120 89//89 91//91
f 121//120 91//91 93//93
f 81//81 83//83 121//120
f 121//120 83//83 85//85
f 121//120 85//85 87//87
f 75//75 77//77 121//120
f 121//120 77//77 79//79
f 121//120 79//79 81//81
f 69//69 71//71 121//120
f 121//120 71//71 73//73
f 121//120 73//73 75//75
f 63//63 65//65 121//120
f 121//120 65//65 67//67
f 121//120 67//67 69//69
f 57//57 59//59 121//120
f 121//120 59//59 61//61
f 121//120 61//61 63//63
f 51//51 53//53 121//120
f 121//120 53//53 55//55
f 121//120 55//55 57//57
f 45//45 47//47 121//120
f 121//120 47//47 49//49
f 121//120 49//49 51//51
f 39//39 41//41 121//120
f 121//120 41//41 43//43
f 121//120 43//43 45//45
f 33//33 35//35 121//120
f 121//120 35//35 37//37
f 121//120 37//37 39//39
f 27//27 29//29 121//120
f 121//120 29//29 31//31
f 121//120 31//31 33//33
f 21//21 23//23 121//120
f 121//120 23//23 25//25
f 121//120 25//25 27//27
f 15//15 17//17 121//120
f 121//120 17//17 19//19
f 121//120 19//19 21//21
f 9//9 11//11 121//120
f 121//120 11//11 13//13
f 121//120 13//13 15//15
f 3//3 5//5 121//120
f 121//120 5//5 7//7
f 121//120 7//7 9//9
