mtllib material.mtl
usemtl new_mat_color.005
v -0.28215400 -0.39499500 0.28000000
v -0.28215400 -0.39499500 0.27365000
v -0.28099600 -0.39499500 0.28000000
v -0.28099600 -0.39499500 0.27365000
v -0.16499800 -0.39499500 0.28000000
v -0.16499800 -0.39499500 0.27365000
v -0.08678100 -0.39499500 0.28000000
v -0.08587400 -0.39499500 0.27365000
v -0.02511700 -0.39499500 0.28000000
v -0.02288700 -0.39499500 0.27365000
v 0.02511700 -0.39499500 0.28000000
v 0.02288700 -0.39499500 0.27365000
v 0.06515700 -0.39499500 0.28000000
v 0.06738700 -0.39499500 0.27365000
v 0.16499800 -0.39499500 0.28000000
v 0.16499800 -0.39499500 0.27365000
v 0.28099700 -0.39499500 0.28000000
v 0.28099700 -0.39499500 0.27365000
v 0.28215400 -0.39499500 0.28000000
v 0.28215400 -0.39499500 0.27365000
v 0.46334100 -0.02640400 0.27365000
v 0.46334100 -0.02640400 0.28000000
v 0.45853900 -0.04899900 0.27365000
v 0.45853900 -0.04899900 0.28000000
v 0.42206200 -0.22061000 0.27365000
v 0.42259600 -0.21809700 0.28000000
v 0.41881800 -0.23587200 0.27365000
v 0.41767700 -0.24123900 0.28000000
v 0.41233200 -0.26638400 0.27365000
v 0.41179800 -0.26889600 0.28000000
v 0.40637700 -0.29440100 0.27365000
v 0.40637700 -0.29440100 0.28000000
v 0.46580700 -0.00885900 0.27365000
v 0.46580700 -0.00885900 0.28000000
v 0.46580700 0.00885900 0.27365000
v 0.46580700 0.00885900 0.28000000
v 0.46334100 0.02640500 0.27365000
v 0.46334100 0.02640500 0.28000000
v 0.45853900 0.04899900 0.28000000
v 0.45853900 0.04899900 0.27365000
v 0.43487200 0.16034100 0.28000000
v 0.43534600 0.15811100 0.27365000
v 0.42160600 0.22275500 0.28000000
v 0.42046500 0.22812200 0.27365000
v 0.41179800 0.26889700 0.28000000
v 0.41233200 0.26638400 0.27365000
v 0.40637700 0.29440100 0.28000000
v 0.40637700 0.29440100 0.27365000
v 0.28215400 0.39499500 0.28000000
v 0.28215400 0.39499500 0.27365000
v 0.28099600 0.39499500 0.28000000
v 0.28099600 0.39499500 0.27365000
v 0.16499800 0.39499500 0.28000000
v 0.16499800 0.39499500 0.27365000
v 0.06515700 0.39499500 0.28000000
v 0.06738700 0.39499500 0.27365000
v 0.02511700 0.39499500 0.28000000
v 0.02288700 0.39499500 0.27365000
v -0.02511700 0.39499500 0.28000000
v -0.02288700 0.39499500 0.27365000
v -0.08678100 0.39499500 0.28000000
v -0.08587400 0.39499500 0.27365000
v -0.16499800 0.39499500 0.28000000
v -0.16499800 0.39499500 0.27365000
v -0.28099700 0.39499500 0.28000000
v -0.28099700 0.39499500 0.27365000
v -0.28215400 0.39499500 0.28000000
v -0.28215400 0.39499500 0.27365000
v 0.36207600 0.36669300 0.28000000
v -0.00000000 -0.00000000 0.28000000
v 0.37763600 0.35173300 0.28000000
v -0.00000000 -0.00000000 0.27365000
v -0.41767700 -0.24124000 0.28000000
v -0.42259600 -0.21809700 0.28000000
v 0.34420800 -0.37880200 0.28000000
v 0.32454700 -0.38771000 0.28000000
v 0.40011100 0.31505700 0.27365000
v 0.40011100 0.31505700 0.28000000
v 0.39043800 0.33435300 0.27365000
v 0.39043800 0.33435300 0.28000000
v 0.37763600 0.35173300 0.27365000
v 0.36207600 0.36669300 0.27365000
v 0.34420800 0.37880200 0.27365000
v 0.34420800 0.37880200 0.28000000
v 0.32454700 0.38771100 0.27365000
v 0.32454700 0.38771100 0.28000000
v 0.30366100 0.39316100 0.27365000
v 0.30366100 0.39316100 0.28000000
v 0.40011100 -0.31505700 0.27365000
v 0.39043800 -0.33435300 0.28000000
v 0.39043800 -0.33435300 0.27365000
v 0.37763600 -0.35173200 0.28000000
v 0.37763600 -0.35173200 0.27365000
v 0.36207700 -0.36669300 0.28000000
v 0.36207700 -0.36669300 0.27365000
v 0.34420800 -0.37880200 0.27365000
v 0.32454700 -0.38771000 0.27365000
v 0.30366100 -0.39316000 0.28000000
v 0.30366100 -0.39316000 0.27365000
v 0.40137700 -0.31088300 0.27365000
v 0.40205400 -0.30865300 0.28000000
v 0.40011100 -0.31505700 0.28000000
v -0.46580700 -0.00885900 0.28000000
v -0.46580700 0.00885900 0.28000000
v -0.40637700 0.29440100 0.27365000
v -0.41233200 0.26638400 0.27365000
v -0.39043800 -0.33435300 0.28000000
v -0.40011100 -0.31505700 0.28000000
v -0.36207700 0.36669300 0.28000000
v -0.34420800 0.37880200 0.28000000
v -0.45853900 -0.04899900 0.28000000
v -0.46334100 0.02640400 0.28000000
v -0.45853900 0.04899900 0.28000000
v -0.40011100 0.31505700 0.27365000
v -0.45853900 -0.04899900 0.27365000
v -0.42206200 -0.22061000 0.27365000
v -0.41881800 -0.23587200 0.27365000
v -0.40205300 -0.30865400 0.28000000
v -0.40637700 -0.29440100 0.28000000
v -0.37763600 0.35173200 0.28000000
v -0.30366100 -0.39316100 0.28000000
v -0.36207700 0.36669300 0.27365000
v -0.37763600 0.35173200 0.27365000
v -0.32454700 -0.38771100 0.28000000
v -0.34420800 -0.37880200 0.28000000
v -0.37763600 -0.35173300 0.28000000
v -0.39043800 0.33435300 0.27365000
v -0.41233200 -0.26638400 0.27365000
v -0.40637700 -0.29440100 0.27365000
v -0.37763600 -0.35173300 0.27365000
v -0.36207600 -0.36669300 0.27365000
v -0.40637700 0.29440100 0.28000000
v -0.40011100 0.31505700 0.28000000
v -0.43487200 0.16034000 0.28000000
v -0.42160600 0.22275500 0.28000000
v -0.39043800 0.33435300 0.28000000
v -0.30366100 0.39316000 0.27365000
v -0.34420800 -0.37880200 0.27365000
v -0.41179800 -0.26889700 0.28000000
v -0.32454700 0.38771000 0.27365000
v -0.34420800 0.37880200 0.27365000
v -0.46334100 -0.02640500 0.28000000
v -0.32454700 -0.38771100 0.27365000
v -0.46334100 -0.02640500 0.27365000
v -0.46334100 0.02640400 0.27365000
v -0.46580700 0.00885900 0.27365000
v -0.46580700 -0.00885900 0.27365000
v -0.41179800 0.26889600 0.28000000
v -0.42046500 0.22812200 0.27365000
v -0.43534600 0.15811000 0.27365000
v -0.45853900 0.04899900 0.27365000
v -0.30366100 0.39316000 0.28000000
v -0.32454700 0.38771000 0.28000000
v -0.40137700 -0.31088400 0.27365000
v -0.40011100 -0.31505700 0.27365000
v -0.39043800 -0.33435300 0.27365000
v -0.36207600 -0.36669300 0.28000000
v -0.30366100 -0.39316100 0.27365000
vn -0.03050000 -0.71580000 0.69770000
vn -0.03050000 -0.71580000 -0.69770000
vn -0.00000000 -0.70710000 0.70710000
vn -0.00000000 -0.70710000 -0.70710000
vn -0.00000000 -0.70710000 0.70710000
vn -0.00000000 -0.70710000 -0.70710000
vn -0.00000000 -0.70710000 0.70710000
vn -0.00000000 -0.70710000 -0.70710000
vn -0.00000000 -0.70710000 0.70710000
vn -0.00000000 -0.70710000 -0.70710000
vn -0.00000000 -0.70710000 0.70710000
vn -0.00000000 -0.70710000 -0.70710000
vn -0.00000000 -0.70710000 0.70710000
vn -0.00000000 -0.70710000 -0.70710000
vn -0.00000000 -0.70710000 0.70710000
vn -0.00000000 -0.70710000 -0.70710000
vn -0.00000000 -0.70710000 0.70710000
vn -0.00000000 -0.70710000 -0.70710000
vn 0.03050000 -0.71580000 0.69770000
vn 0.03050000 -0.71580000 -0.69770000
vn 0.70390000 -0.12410000 -0.69930000
vn 0.70390000 -0.12410000 0.69930000
vn 0.69170000 -0.14700000 -0.70710000
vn 0.69170000 -0.14700000 0.70710000
vn 0.69170000 -0.14700000 -0.70710000
vn 0.69170000 -0.14700000 0.70710000
vn 0.69170000 -0.14700000 -0.70710000
vn 0.69170000 -0.14700000 0.70710000
vn 0.69170000 -0.14700000 -0.70710000
vn 0.69170000 -0.14700000 0.70710000
vn 0.69380000 -0.17860000 -0.69770000
vn 0.69380000 -0.17860000 0.69770000
vn 0.72040000 -0.05040000 -0.69170000
vn 0.72040000 -0.05040000 0.69170000
vn 0.72040000 0.05040000 -0.69170000
vn 0.72040000 0.05040000 0.69170000
vn 0.70390000 0.12410000 -0.69930000
vn 0.70390000 0.12410000 0.69930000
vn 0.69170000 0.14700000 0.70710000
vn 0.69170000 0.14700000 -0.70710000
vn 0.69170000 0.14700000 0.70710000
vn 0.69170000 0.14700000 -0.70710000
vn 0.69170000 0.14700000 0.70710000
vn 0.69170000 0.14700000 -0.70710000
vn 0.69170000 0.14700000 0.70710000
vn 0.69170000 0.14700000 -0.70710000
vn 0.69380000 0.17860000 0.69770000
vn 0.69380000 0.17860000 -0.69770000
vn 0.03050000 0.71580000 0.69770000
vn 0.03050000 0.71580000 -0.69770000
vn -0.00000000 0.70710000 0.70710000
vn -0.00000000 0.70710000 -0.70710000
vn -0.00000000 0.70710000 0.70710000
vn -0.00000000 0.70710000 -0.70710000
vn -0.00000000 0.70710000 0.70710000
vn -0.00000000 0.70710000 -0.70710000
vn -0.00000000 0.70710000 0.70710000
vn -0.00000000 0.70710000 -0.70710000
vn -0.00000000 0.70710000 0.70710000
vn -0.00000000 0.70710000 -0.70710000
vn -0.00000000 0.70710000 0.70710000
vn -0.00000000 0.70710000 -0.70710000
vn -0.00000000 0.70710000 0.70710000
vn -0.00000000 0.70710000 -0.70710000
vn -0.00000000 0.70710000 0.70710000
vn -0.00000000 0.70710000 -0.70710000
vn -0.03050000 0.71580000 0.69770000
vn -0.03050000 0.71580000 -0.69770000
vn 0.45640000 0.56360000 0.68850000
vn -0.00000000 -0.00000000 1.00000000
vn 0.54530000 0.47820000 0.68850000
vn -0.00000000 -0.00000000 -1.00000000
vn -0.69170000 -0.14700000 0.70710000
vn -0.69170000 -0.14700000 0.70710000
vn 0.35440000 -0.63280000 0.68850000
vn 0.24210000 -0.68370000 0.68850000
vn 0.67360000 0.26880000 -0.68850000
vn 0.67360000 0.26880000 0.68850000
vn 0.61840000 0.37890000 -0.68850000
vn 0.61840000 0.37890000 0.68850000
vn 0.54530000 0.47820000 -0.68850000
vn 0.45640000 0.56360000 -0.68850000
vn 0.35440000 0.63280000 -0.68850000
vn 0.35440000 0.63280000 0.68850000
vn 0.24210000 0.68370000 -0.68850000
vn 0.24210000 0.68370000 0.68850000
vn 0.12280000 0.71480000 -0.68850000
vn 0.12280000 0.71480000 0.68850000
vn 0.67360000 -0.26880000 -0.68850000
vn 0.61840000 -0.37890000 0.68850000
vn 0.61840000 -0.37890000 -0.68850000
vn 0.54530000 -0.47820000 0.68850000
vn 0.54530000 -0.47820000 -0.68850000
vn 0.45640000 -0.56360000 0.68850000
vn 0.45640000 -0.56360000 -0.68850000
vn 0.35440000 -0.63280000 -0.68850000
vn 0.24210000 -0.68370000 -0.68850000
vn 0.12280000 -0.71480000 0.68850000
vn 0.12280000 -0.71480000 -0.68850000
vn 0.67670000 -0.20530000 -0.70710000
vn 0.67670000 -0.20530000 0.70710000
vn 0.67360000 -0.26880000 0.68850000
vn -0.72040000 -0.05040000 0.69170000
vn -0.72040000 0.05040000 0.69170000
vn -0.69380000 0.17860000 -0.69770000
vn -0.69170000 0.14700000 -0.70710000
vn -0.61840000 -0.37890000 0.68850000
vn -0.67360000 -0.26880000 0.68850000
vn -0.45640000 0.56360000 0.68850000
vn -0.35440000 0.63280000 0.68850000
vn -0.69170000 -0.14700000 0.70710000
vn -0.70390000 0.12410000 0.69930000
vn -0.69170000 0.14700000 0.70710000
vn -0.67360000 0.26880000 -0.68850000
vn -0.69170000 -0.14700000 -0.70710000
vn -0.69170000 -0.14700000 -0.70710000
vn -0.69170000 -0.14700000 -0.70710000
vn -0.67670000 -0.20530000 0.70710000
vn -0.69380000 -0.17860000 0.69770000
vn -0.54530000 0.47820000 0.68850000
vn -0.12280000 -0.71480000 0.68850000
vn -0.45640000 0.56360000 -0.68850000
vn -0.54530000 0.47820000 -0.68850000
vn -0.24210000 -0.68370000 0.68850000
vn -0.35440000 -0.63280000 0.68850000
vn -0.54530000 -0.47820000 0.68850000
vn -0.61840000 0.37890000 -0.68850000
vn -0.69170000 -0.14700000 -0.70710000
vn -0.69380000 -0.17860000 -0.69770000
vn -0.54530000 -0.47820000 -0.68850000
vn -0.45640000 -0.56360000 -0.68850000
vn -0.69380000 0.17860000 0.69770000
vn -0.67360000 0.26880000 0.68850000
vn -0.69170000 0.14700000 0.70710000
vn -0.69170000 0.14700000 0.70710000
vn -0.61840000 0.37890000 0.68850000
vn -0.12280000 0.71480000 -0.68850000
vn -0.35440000 -0.63280000 -0.68850000
vn -0.69170000 -0.14700000 0.70710000
vn -0.24210000 0.68370000 -0.68850000
vn -0.35440000 0.63280000 -0.68850000
vn -0.70390000 -0.12410000 0.69930000
vn -0.24210000 -0.68370000 -0.68850000
vn -0.70390000 -0.12410000 -0.69930000
vn -0.70390000 0.12410000 -0.69930000
vn -0.72040000 0.05040000 -0.69170000
vn -0.72040000 -0.05040000 -0.69170000
vn -0.69170000 0.14700000 0.70710000
vn -0.69170000 0.14700000 -0.70710000
vn -0.69170000 0.14700000 -0.70710000
vn -0.69170000 0.14700000 -0.70710000
vn -0.12280000 0.71480000 0.68850000
vn -0.24210000 0.68370000 0.68850000
vn -0.67670000 -0.20530000 -0.70710000
vn -0.67360000 -0.26870000 -0.68850000
vn -0.61840000 -0.37900000 -0.68850000
vn -0.45640000 -0.56360000 0.68850000
vn -0.12280000 -0.71480000 -0.68850000
f 1//1 2//2 3//3
f 3//3 2//2 4//4
f 3//3 4//4 5//5
f 5//5 4//4 6//6
f 5//5 6//6 7//7
f 7//7 6//6 8//8
f 7//7 8//8 9//9
f 9//9 8//8 10//10
f 9//9 10//10 11//11
f 11//11 10//10 12//12
f 11//11 12//12 13//13
f 13//13 12//12 14//14
f 13//13 14//14 15//15
f 15//15 14//14 16//16
f 15//15 16//16 17//17
f 17//17 16//16 18//18
f 17//17 18//18 19//19
f 19//19 18//18 20//20
f 21//21 22//22 23//23
f 23//23 22//22 24//24
f 23//23 24//24 25//25
f 25//25 24//24 26//26
f 25//25 26//26 27//27
f 27//27 26//26 28//28
f 27//27 28//28 29//29
f 29//29 28//28 30//30
f 29//29 30//30 31//31
f 31//31 30//30 32//32
f 22//22 21//21 33//33
f 22//22 33//33 34//34
f 34//34 33//33 35//35
f 34//34 35//35 36//36
f 36//36 35//35 37//37
f 36//36 37//37 38//38
f 38//38 37//37 39//39
f 39//39 37//37 40//40
f 39//39 40//40 41//41
f 41//41 40//40 42//42
f 41//41 42//42 43//43
f 43//43 42//42 44//44
f 43//43 44//44 45//45
f 45//45 44//44 46//46
f 45//45 46//46 47//47
f 47//47 46//46 48//48
f 49//49 50//50 51//51
f 51//51 50//50 52//52
f 51//51 52//52 53//53
f 53//53 52//52 54//54
f 53//53 54//54 55//55
f 55//55 54//54 56//56
f 55//55 56//56 57//57
f 57//57 56//56 58//58
f 57//57 58//58 59//59
f 59//59 58//58 60//60
f 59//59 60//60 61//61
f 61//61 60//60 62//62
f 61//61 62//62 63//63
f 63//63 62//62 64//64
f 63//63 64//64 65//65
f 65//65 64//64 66//66
f 65//65 66//66 67//67
f 67//67 66//66 68//68
f 69//69 70//70 71//71
f 52//52 72//72 54//54
f 8//8 72//72 10//10
f 73//73 70//70 74//74
f 75//75 70//70 76//76
f 5//5 70//70 3//3
f 47//47 48//48 77//77
f 47//47 77//77 78//78
f 78//78 77//77 79//79
f 78//78 79//79 80//80
f 80//80 79//79 81//81
f 80//80 81//81 71//71
f 71//71 81//81 82//82
f 71//71 82//82 69//69
f 69//69 82//82 83//83
f 69//69 83//83 84//84
f 84//84 83//83 85//85
f 84//84 85//85 86//86
f 86//86 85//85 87//87
f 86//86 87//87 88//88
f 88//88 87//87 50//50
f 88//88 50//50 49//49
f 89//89 90//90 91//91
f 91//91 90//90 92//92
f 91//91 92//92 93//93
f 93//93 92//92 94//94
f 93//93 94//94 95//95
f 95//95 94//94 75//75
f 95//95 75//75 96//96
f 96//96 75//75 76//76
f 96//96 76//76 97//97
f 97//97 76//76 98//98
f 97//97 98//98 99//99
f 99//99 98//98 19//19
f 99//99 19//19 20//20
f 31//31 32//32 100//100
f 100//100 32//32 101//101
f 100//100 101//101 89//89
f 89//89 101//101 102//102
f 89//89 102//102 90//90
f 103//103 70//70 104//104
f 45//45 70//70 43//43
f 16//16 72//72 18//18
f 105//105 72//72 106//106
f 41//41 70//70 39//39
f 18//18 72//72 20//20
f 76//76 70//70 98//98
f 107//107 70//70 108//108
f 109//109 70//70 110//110
f 74//74 70//70 111//111
f 112//112 70//70 113//113
f 62//62 72//72 64//64
f 3//3 70//70 1//1
f 88//88 70//70 86//86
f 49//49 70//70 88//88
f 91//91 72//72 89//89
f 40//40 72//72 42//42
f 27//27 72//72 25//25
f 44//44 72//72 46//46
f 96//96 72//72 95//95
f 114//114 72//72 105//105
f 81//81 72//72 82//82
f 85//85 72//72 87//87
f 32//32 70//70 101//101
f 28//28 70//70 30//30
f 79//79 72//72 81//81
f 115//115 72//72 116//116
f 116//116 72//72 117//117
f 118//118 70//70 119//119
f 2//2 72//72 4//4
f 120//120 70//70 109//109
f 11//11 70//70 9//9
f 1//1 70//70 121//121
f 9//9 70//70 7//7
f 80//80 70//70 78//78
f 47//47 70//70 45//45
f 36//36 70//70 34//34
f 122//122 72//72 123//123
f 38//38 70//70 36//36
f 87//87 72//72 50//50
f 124//124 70//70 125//125
f 126//126 70//70 107//107
f 86//86 70//70 84//84
f 19//19 70//70 17//17
f 123//123 72//72 127//127
f 128//128 72//72 129//129
f 60//60 72//72 62//62
f 130//130 72//72 131//131
f 117//117 72//72 128//128
f 132//132 70//70 133//133
f 134//134 70//70 135//135
f 99//99 72//72 97//97
f 133//133 70//70 136//136
f 42//42 72//72 44//44
f 100//100 72//72 31//31
f 136//136 70//70 120//120
f 24//24 70//70 26//26
f 34//34 70//70 22//22
f 43//43 70//70 41//41
f 68//68 72//72 137//137
f 94//94 70//70 75//75
f 131//131 72//72 138//138
f 139//139 70//70 73//73
f 140//140 72//72 141//141
f 142//142 70//70 103//103
f 83//83 72//72 85//85
f 138//138 72//72 143//143
f 127//127 72//72 114//114
f 10//10 72//72 12//12
f 50//50 72//72 52//52
f 93//93 72//72 91//91
f 102//102 70//70 90//90
f 64//64 72//72 66//66
f 89//89 72//72 100//100
f 119//119 70//70 139//139
f 82//82 72//72 83//83
f 66//66 72//72 68//68
f 65//65 70//70 63//63
f 129//129 119//119 128//128
f 128//128 119//119 139//139
f 128//128 139//139 117//117
f 117//117 139//139 73//73
f 117//117 73//73 116//116
f 116//116 73//73 74//74
f 116//116 74//74 115//115
f 115//115 74//74 111//111
f 115//115 111//111 144//144
f 144//144 111//111 142//142
f 112//112 145//145 146//146
f 112//112 146//146 104//104
f 104//104 146//146 147//147
f 104//104 147//147 103//103
f 103//103 147//147 144//144
f 103//103 144//144 142//142
f 132//132 105//105 148//148
f 148//148 105//105 106//106
f 148//148 106//106 135//135
f 135//135 106//106 149//149
f 135//135 149//149 134//134
f 134//134 149//149 150//150
f 134//134 150//150 113//113
f 113//113 150//150 151//151
f 113//113 151//151 112//112
f 112//112 151//151 145//145
f 67//67 68//68 137//137
f 67//67 137//137 152//152
f 152//152 137//137 140//140
f 152//152 140//140 153//153
f 153//153 140//140 141//141
f 153//153 141//141 110//110
f 110//110 141//141 122//122
f 110//110 122//122 109//109
f 109//109 122//122 123//123
f 109//109 123//123 120//120
f 120//120 123//123 127//127
f 120//120 127//127 136//136
f 136//136 127//127 114//114
f 136//136 114//114 133//133
f 133//133 114//114 105//105
f 133//133 105//105 132//132
f 119//119 129//129 118//118
f 118//118 129//129 154//154
f 118//118 154//154 108//108
f 154//154 155//155 108//108
f 108//108 155//155 156//156
f 108//108 156//156 107//107
f 107//107 156//156 130//130
f 107//107 130//130 126//126
f 126//126 130//130 131//131
f 126//126 131//131 157//157
f 157//157 131//131 138//138
f 157//157 138//138 125//125
f 125//125 138//138 143//143
f 125//125 143//143 124//124
f 124//124 143//143 158//158
f 124//124 158//158 121//121
f 121//121 158//158 2//2
f 121//121 2//2 1//1
f 31//31 72//72 29//29
f 144//144 72//72 115//115
f 61//61 70//70 59//59
f 154//154 72//72 155//155
f 129//129 72//72 154//154
f 26//26 70//70 28//28
f 23//23 72//72 21//21
f 145//145 72//72 146//146
f 22//22 70//70 24//24
f 58//58 72//72 60//60
f 29//29 72//72 27//27
f 48//48 72//72 77//77
f 150//150 72//72 151//151
f 57//57 70//70 55//55
f 143//143 72//72 158//158
f 121//121 70//70 124//124
f 51//51 70//70 49//49
f 17//17 70//70 15//15
f 106//106 72//72 149//149
f 157//157 70//70 126//126
f 20//20 72//72 99//99
f 78//78 70//70 47//47
f 135//135 70//70 148//148
f 63//63 70//70 61//61
f 30//30 70//70 32//32
f 148//148 70//70 132//132
f 90//90 70//70 92//92
f 12//12 72//72 14//14
f 67//67 70//70 65//65
f 149//149 72//72 150//150
f 152//152 70//70 67//67
f 104//104 70//70 112//112
f 59//59 70//70 57//57
f 155//155 72//72 156//156
f 95//95 72//72 93//93
f 53//53 70//70 51//51
f 97//97 72//72 96//96
f 15//15 70//70 13//13
f 33//33 72//72 35//35
f 101//101 70//70 102//102
f 98//98 70//70 19//19
f 156//156 72//72 130//130
f 141//141 72//72 122//122
f 111//111 70//70 142//142
f 21//21 72//72 33//33
f 113//113 70//70 134//134
f 6//6 72//72 8//8
f 77//77 72//72 79//79
f 39//39 70//70 38//38
f 153//153 70//70 152//152
f 110//110 70//70 153//153
f 147//147 72//72 144//144
f 7//7 70//70 5//5
f 151//151 72//72 145//145
f 46//46 72//72 48//48
f 146//146 72//72 147//147
f 13//13 70//70 11//11
f 92//92 70//70 94//94
f 35//35 72//72 37//37
f 158//158 72//72 2//2
f 14//14 72//72 16//16
f 55//55 70//70 53//53
f 71//71 70//70 80//80
f 84//84 70//70 69//69
f 25//25 72//72 23//23
f 137//137 72//72 140//140
f 4//4 72//72 6//6
f 125//125 70//70 157//157
f 108//108 70//70 118//118
f 37//37 72//72 40//40
f 54//54 72//72 56//56
f 56//56 72//72 58//58

